<svg xmlns="http://www.w3.org/2000/svg" xmlns:xlink="http://www.w3.org/1999/xlink" width="86" height="86" viewBox="0 0 86 86">
  <defs>
    <filter id="Ellipse_11539" x="0" y="0" width="86" height="86" filterUnits="userSpaceOnUse">
      <feOffset dy="3" input="SourceAlpha"/>
      <feGaussianBlur stdDeviation="3" result="blur"/>
      <feFlood flood-opacity="0.161"/>
      <feComposite operator="in" in2="blur"/>
      <feComposite in="SourceGraphic"/>
    </filter>
  </defs>
  <g id="Group_1143930" data-name="Group 1143930" transform="translate(-613 -1479)">
    <g transform="matrix(1, 0, 0, 1, 613, 1479)" filter="url(#Ellipse_11539)">
      <g id="Ellipse_11539-2" data-name="Ellipse 11539" transform="translate(9 6)" fill="#fbebfc" stroke="#7b277e" stroke-width="3">
        <circle cx="34" cy="34" r="34" stroke="none"/>
        <circle cx="34" cy="34" r="32.5" fill="none"/>
      </g>
    </g>
    <g id="Group_1143928" data-name="Group 1143928" transform="translate(613.445 1476.188)">
      <g id="Group_1143927" data-name="Group 1143927" transform="translate(22.684 17.411)">
        <path id="Path_978834" data-name="Path 978834" d="M31.214,91.2A11.971,11.971,0,0,1,43.2,79.214h.246V73.467A1.866,1.866,0,0,0,41.579,71.6H25.467A1.866,1.866,0,0,0,23.6,73.467V89.629A1.866,1.866,0,0,0,25.467,91.5h5.8a.73.73,0,0,1-.049-.295Z" transform="translate(-23.6 -45.418)" fill="#d7385e"/>
        <path id="Path_978835" data-name="Path 978835" d="M76.232,91.2A11.971,11.971,0,0,0,64.246,79.214H64V73.467A1.866,1.866,0,0,1,65.867,71.6H82.029A1.866,1.866,0,0,1,83.9,73.467V89.629A1.866,1.866,0,0,1,82.029,91.5H76.183a.73.73,0,0,0,.049-.295Z" transform="translate(-44.154 -45.418)" fill="#4cd3c2"/>
        <path id="Path_978836" data-name="Path 978836" d="M38.767,48.5H61.61a1.866,1.866,0,0,1,1.867,1.867v7.614a1.866,1.866,0,0,1-1.867,1.867H38.767A1.866,1.866,0,0,1,36.9,57.981V50.367A1.866,1.866,0,0,1,38.767,48.5Z" transform="translate(-30.366 -33.665)" fill="#ef6054"/>
        <path id="Path_978837" data-name="Path 978837" d="M51.511,18.94l-9.088,11.5a1.661,1.661,0,0,0,.295,2.358,1.542,1.542,0,0,0,1.032.344H61.975a1.656,1.656,0,0,0,1.67-1.67,1.852,1.852,0,0,0-.344-1.032l-9.137-11.5a1.705,1.705,0,0,0-2.358-.295Z" transform="translate(-32.991 -18.302)" fill="#f2e89c"/>
      </g>
      <path id="Path_978838" data-name="Path 978838" d="M24.551,64.274h5.8a.812.812,0,0,0,.835-.884,11.036,11.036,0,0,1,11.348-11.3A11.05,11.05,0,0,1,53.878,63.439a.881.881,0,0,0,.884.884h5.8a2.726,2.726,0,0,0,2.7-2.7V55.776a.884.884,0,0,0-1.768,0v5.8a.985.985,0,0,1-.982.982H55.6A12.832,12.832,0,0,0,43.415,50.372V45.46a.985.985,0,0,1,.982-.982H60.559a.985.985,0,0,1,.982.982v4.077a.884.884,0,0,0,1.768,0V45.46a2.726,2.726,0,0,0-2.7-2.7H56.58a2.416,2.416,0,0,0,.2-1.032V34.112a2.684,2.684,0,0,0-2.653-2.7,2.385,2.385,0,0,0-.393-2.358L44.5,17.508a2.545,2.545,0,0,0-3.979,0l-2.309,2.9a.914.914,0,0,0,.1,1.228.864.864,0,0,0,1.228-.147l2.309-2.9a.839.839,0,0,1,1.277,0l9.137,11.544a.812.812,0,0,1-.639,1.326H33.393a.824.824,0,0,1-.639-1.326l2.211-2.8a.875.875,0,1,0-1.375-1.081l-2.211,2.8a2.425,2.425,0,0,0-.393,2.358,2.716,2.716,0,0,0-2.653,2.7v7.614a2.565,2.565,0,0,0,.2,1.032H24.5a2.726,2.726,0,0,0-2.7,2.7v6.877a.884.884,0,0,0,1.768,0V45.46a.985.985,0,0,1,.982-.982H40.713a.985.985,0,0,1,.982.982v4.962A12.832,12.832,0,0,0,29.513,62.6H24.551a.985.985,0,0,1-.982-.982V55.088a.884.884,0,1,0-1.768,0v6.484a2.705,2.705,0,0,0,2.751,2.7Zm6.534-21.566a1.071,1.071,0,0,1-1.032-1.032V34.112a1,1,0,0,1,1.032-.982H53.927a1.063,1.063,0,0,1,1.032.982v7.614a1.071,1.071,0,0,1-1.032,1.032C53.976,42.709,31.084,42.709,31.084,42.709Zm32.176,10.12v.491a.884.884,0,0,1-1.768,0v-.491a.884.884,0,1,1,1.768,0ZM35.7,23.6l.688-.884A.875.875,0,0,1,37.765,23.8l-.688.884A.875.875,0,1,1,35.7,23.6Z" fill="#14141e"/>
    </g>
  </g>
</svg>
