<svg xmlns="http://www.w3.org/2000/svg" xmlns:xlink="http://www.w3.org/1999/xlink" width="86" height="86" viewBox="0 0 86 86">
  <defs>
    <filter id="Ellipse_11539" x="0" y="0" width="86" height="86" filterUnits="userSpaceOnUse">
      <feOffset dy="3" input="SourceAlpha"/>
      <feGaussianBlur stdDeviation="3" result="blur"/>
      <feFlood flood-opacity="0.161"/>
      <feComposite operator="in" in2="blur"/>
      <feComposite in="SourceGraphic"/>
    </filter>
  </defs>
  <g id="Group_1143926" data-name="Group 1143926" transform="translate(-194 -1479)">
    <g transform="matrix(1, 0, 0, 1, 194, 1479)" filter="url(#Ellipse_11539)">
      <g id="Ellipse_11539-2" data-name="Ellipse 11539" transform="translate(9 6)" fill="#fbebfc" stroke="#7b277e" stroke-width="3">
        <circle cx="34" cy="34" r="34" stroke="none"/>
        <circle cx="34" cy="34" r="32.5" fill="none"/>
      </g>
    </g>
    <g id="Group_1143925" data-name="Group 1143925" transform="translate(214.366 1493.369)">
      <g id="Group_1143924" data-name="Group 1143924" transform="translate(0.664 0.664)">
        <path id="Path_978828" data-name="Path 978828" d="M28.457,225.279H11.229A3.729,3.729,0,0,0,7.5,229.008v17.228a3.729,3.729,0,0,0,3.729,3.729H28.457a3.729,3.729,0,0,0,3.729-3.729V229.008A3.729,3.729,0,0,0,28.457,225.279Z" transform="translate(-7.5 -206.025)" fill="#ffe07d"/>
        <path id="Path_978829" data-name="Path 978829" d="M11.294,246.236V229.008a3.729,3.729,0,0,1,3.729-3.729H11.229A3.729,3.729,0,0,0,7.5,229.008v17.228a3.729,3.729,0,0,0,3.729,3.729h3.794a3.729,3.729,0,0,1-3.729-3.729Z" transform="translate(-7.5 -206.025)" fill="#ffd064"/>
        <path id="Path_978830" data-name="Path 978830" d="M99.808,9l-12.414,21.5a3,3,0,0,0,2.6,4.5h24.828a3,3,0,0,0,2.6-4.5L105.01,9A3,3,0,0,0,99.808,9Z" transform="translate(-79.96 -7.503)" fill="#9dc6fb"/>
        <path id="Path_978831" data-name="Path 978831" d="M91.186,30.509,103.6,9.007a3.013,3.013,0,0,1,.7-.83,3.007,3.007,0,0,0-4.5.83l-12.414,21.5a3,3,0,0,0,2.6,4.5h3.794A3,3,0,0,1,91.186,30.509Z" transform="translate(-79.957 -7.506)" fill="#80b4fb"/>
        <circle id="Ellipse_11559" data-name="Ellipse 11559" cx="12.866" cy="12.866" r="12.866" transform="translate(18.209 14.323)" fill="#df75a5"/>
        <path id="Path_978832" data-name="Path 978832" d="M217.249,182.381a12.868,12.868,0,0,1,10.968-12.726,12.866,12.866,0,1,0,0,25.452A12.868,12.868,0,0,1,217.249,182.381Z" transform="translate(-195.246 -155.191)" fill="#dd5790"/>
      </g>
      <path id="Path_978833" data-name="Path 978833" d="M33.571,14.449,27.52,3.968a.663.663,0,1,0-1.148.663l5.6,9.7-.231,0A13.545,13.545,0,0,0,18.214,27.508H10.747a2.386,2.386,0,0,1-2.06-1.146A2.316,2.316,0,0,1,8.673,24L21.086,2.5a2.34,2.34,0,0,1,3.958-.151.686.686,0,0,0,.908.232.663.663,0,0,0,.217-.936,3.666,3.666,0,0,0-6.231.191L9.88,19.254H4.393A4.392,4.392,0,0,0,0,23.646V40.874a4.392,4.392,0,0,0,4.392,4.392h0a.681.681,0,0,0,.691-.643.663.663,0,0,0-.663-.684H4.393a3.066,3.066,0,0,1-3.066-3.066V23.646A3.066,3.066,0,0,1,4.393,20.58H9.115l-1.59,2.755a3.628,3.628,0,0,0,0,3.661,3.724,3.724,0,0,0,3.237,1.838h7.488a13.542,13.542,0,0,0,6.441,10.56v1.48a3.066,3.066,0,0,1-3.066,3.066H7.741a.663.663,0,0,0,0,1.326H21.621a4.392,4.392,0,0,0,4.392-4.392v-.766a13.528,13.528,0,1,0,7.558-25.66ZM31.738,40.055a12.2,12.2,0,1,1,12.2-12.2A12.216,12.216,0,0,1,31.738,40.055Z" transform="translate(0 0)"/>
    </g>
  </g>
</svg>
