<svg xmlns="http://www.w3.org/2000/svg" xmlns:xlink="http://www.w3.org/1999/xlink" width="108" height="108" viewBox="0 0 108 108">
  <defs>
    <filter id="Ellipse_11513" x="0" y="0" width="108" height="108" filterUnits="userSpaceOnUse">
      <feOffset dy="3" input="SourceAlpha"/>
      <feGaussianBlur stdDeviation="3" result="blur"/>
      <feFlood flood-opacity="0.161"/>
      <feComposite operator="in" in2="blur"/>
      <feComposite in="SourceGraphic"/>
    </filter>
  </defs>
  <g id="Group_1143923" data-name="Group 1143923" transform="translate(-746 -515)">
    <g id="Group_1143495" data-name="Group 1143495" transform="translate(559 -642)">
      <g transform="matrix(1, 0, 0, 1, 187, 1157)" filter="url(#Ellipse_11513)">
        <g id="Ellipse_11513-2" data-name="Ellipse 11513" transform="translate(9 6)" fill="#fce8a6" stroke="#f8c624" stroke-width="3">
          <circle cx="45" cy="45" r="45" stroke="none"/>
          <circle cx="45" cy="45" r="43.5" fill="none"/>
        </g>
      </g>
    </g>
    <g id="Group_1143922" data-name="Group 1143922" transform="translate(772.143 536.622)">
      <rect id="Rectangle_405146" data-name="Rectangle 405146" width="23.204" height="5.355" transform="translate(31.618 27.593)" fill="#d3a06c"/>
      <path id="Path_978810" data-name="Path 978810" d="M171.424,34.7V9.712h35.7V34.7h-35.7Z" transform="translate(-152.3 -7.108)" fill="#ececec"/>
      <rect id="Rectangle_405147" data-name="Rectangle 405147" width="35.698" height="1.785" transform="translate(19.124 25.808)" fill="#b6c1ce"/>
      <path id="Path_978811" data-name="Path 978811" d="M59.424,146.733V126.206a12.494,12.494,0,0,1,12.494-12.494h0a12.494,12.494,0,0,1,12.494,12.494v20.526Z" transform="translate(-52.795 -99.506)" fill="#d3a06c"/>
      <path id="Path_978812" data-name="Path 978812" d="M164.316,113.712c-.3,0-.6.024-.892.045a12.486,12.486,0,0,1,11.6,12.45v20.526h1.785V126.206A12.494,12.494,0,0,0,164.316,113.712Z" transform="translate(-145.193 -99.506)" fill="#b27946"/>
      <path id="Path_978813" data-name="Path 978813" d="M243.424,241.712h1.785a2.677,2.677,0,0,1,2.677,2.677h0a2.677,2.677,0,0,1-2.677,2.677h-1.785Z" transform="translate(-216.268 -213.226)" fill="#f9e0a6"/>
      <path id="Path_978814" data-name="Path 978814" d="M44.621,390.435a5.355,5.355,0,0,0-4.152-3.452l-7.626-1.271H25.7l-7.626,1.271a5.354,5.354,0,0,0-4.152,3.452l-2.5,6.879h35.7Z" transform="translate(-10.15 -341.162)" fill="#ececec"/>
      <path id="Path_978815" data-name="Path 978815" d="M212.15,397.314H217.7l-2.5-6.879a5.355,5.355,0,0,0-4.152-3.452l-7.626-1.271,6.648,4.432a3.571,3.571,0,0,1,1.568,2.576Z" transform="translate(-180.731 -341.162)" fill="#b6c1ce"/>
      <g id="Group_1143919" data-name="Group 1143919" transform="translate(11.039 44.55)">
        <path id="Path_978816" data-name="Path 978816" d="M179.509,386.464l-2.73,7.28-5.355-4.462,3.57-3.57Z" transform="translate(-163.339 -385.712)" fill="#92e0c0"/>
        <path id="Path_978817" data-name="Path 978817" d="M98.952,386.464l2.73,7.28,5.355-4.462-3.57-3.57Z" transform="translate(-98.952 -385.712)" fill="#92e0c0"/>
      </g>
      <g id="Group_1143920" data-name="Group 1143920" transform="translate(6.629 24.023)">
        <path id="Path_978818" data-name="Path 978818" d="M63.886,241.712H62.1a2.677,2.677,0,0,0-2.677,2.677h0a2.677,2.677,0,0,0,2.677,2.677h1.785Z" transform="translate(-59.424 -237.25)" fill="#f9e0a6"/>
        <path id="Path_978819" data-name="Path 978819" d="M139.424,369.712V371.5a3.57,3.57,0,0,0,3.57,3.57h0a3.57,3.57,0,0,0,3.57-3.57v-1.785Z" transform="translate(-130.499 -350.97)" fill="#f9e0a6"/>
        <path id="Path_978820" data-name="Path 978820" d="M91.424,204.389v8.032a8.924,8.924,0,0,0,8.925,8.925h0a8.924,8.924,0,0,0,8.925-8.925v-8.032h0a16.109,16.109,0,0,1-8.288-2.3l-.636-.382-.636.382a16.109,16.109,0,0,1-8.288,2.3Z" transform="translate(-87.854 -201.712)" fill="#f9e0a6"/>
      </g>
      <path id="Path_978821" data-name="Path 978821" d="M171.456,224.744v8.14a8.926,8.926,0,0,1-8.032,8.88,8.925,8.925,0,0,0,9.817-8.88v-8.032A16.08,16.08,0,0,1,171.456,224.744Z" transform="translate(-145.193 -198.151)" fill="#eabd8c"/>
      <g id="Group_1143921" data-name="Group 1143921" transform="translate(10.199 30.271)">
        <path id="Path_978822" data-name="Path 978822" d="M191.886,263.067H190.1a2.677,2.677,0,0,1-2.677-2.677V258.6a.893.893,0,0,1,.892-.892h5.355a.893.893,0,0,1,.892.892v1.785A2.677,2.677,0,0,1,191.886,263.067Z" transform="translate(-176.715 -257.712)" fill="#ececec"/>
        <path id="Path_978823" data-name="Path 978823" d="M94.1,263.067h1.785a2.677,2.677,0,0,0,2.677-2.677V258.6a.893.893,0,0,0-.892-.892H92.316a.893.893,0,0,0-.892.892v1.785A2.677,2.677,0,0,0,94.1,263.067Z" transform="translate(-91.424 -257.712)" fill="#ececec"/>
      </g>
      <path id="Path_978824" data-name="Path 978824" d="M55.714,33.84V1.712H18.231v11.6h1.785V3.5H53.929V26.7H52.144v1.785h1.785v3.57H32.51v-3.57H50.359V26.7H32.51a13.387,13.387,0,1,0-26.774,0V45.679a6.248,6.248,0,0,0-2.8,3.29L0,57.044H38.246l-2.937-8.077a6.239,6.239,0,0,0-2.8-3.289V33.84ZM14.793,45.582A4.46,4.46,0,0,0,17.2,48.56l-3.039,2.533L12.255,46Zm4.33,1.646a2.681,2.681,0,0,1-2.677-2.677v-.38a9.617,9.617,0,0,0,5.355,0v.38A2.681,2.681,0,0,1,19.124,47.227Zm4.33-1.646L25.992,46l-1.907,5.088L21.046,48.56A4.467,4.467,0,0,0,23.454,45.582Zm-4.33-2.817a8.04,8.04,0,0,1-7.909-6.676,3.525,3.525,0,0,0,1.662.429h1.785a3.573,3.573,0,0,0,3.57-3.57h1.785a3.573,3.573,0,0,0,3.57,3.57h1.785a3.525,3.525,0,0,0,1.662-.429A8.04,8.04,0,0,1,19.124,42.765Zm8.032-13.387H21.8a1.787,1.787,0,0,0-1.785,1.785H18.231a1.787,1.787,0,0,0-1.785-1.785H11.091V27.57a17.008,17.008,0,0,0,7.855-2.4l.177-.107.177.106a17.008,17.008,0,0,0,7.855,2.4Zm-1.785,5.355H23.586A1.787,1.787,0,0,1,21.8,32.948V31.163h5.355v1.785A1.787,1.787,0,0,1,25.371,34.733Zm-8.925-3.57v1.785a1.787,1.787,0,0,1-1.785,1.785H12.876a1.787,1.787,0,0,1-1.785-1.785V31.163Zm-7.14,0v1.785a1.785,1.785,0,0,1,0-3.57Zm19.634,0V29.378a1.785,1.785,0,1,1,0,3.57ZM19.124,15.1a11.615,11.615,0,0,1,11.6,11.6v1.389a3.533,3.533,0,0,0-1.785-.5V25.808h-.892a15.214,15.214,0,0,1-7.829-2.169l-1.1-.657-1.1.657A15.214,15.214,0,0,1,10.2,25.808H9.307v1.785a3.533,3.533,0,0,0-1.785.5V26.7A11.615,11.615,0,0,1,19.124,15.1ZM7.522,34.237a3.533,3.533,0,0,0,1.785.5,9.821,9.821,0,0,0,5.355,8.734v.328L7.78,44.941c-.088.014-.171.043-.259.061V34.237ZM33.633,49.578,35.7,55.259H31.422L30.7,52.366l-1.73.432.616,2.461H8.664L9.279,52.8l-1.73-.432-.723,2.893H2.549l2.065-5.681A4.476,4.476,0,0,1,8.074,46.7l2.386-.4,2.914,7.769,5.749-4.79,5.748,4.791L27.786,46.3l2.386.4A4.474,4.474,0,0,1,33.633,49.578Zm-3.167-4.637-6.88-1.147v-.328a9.82,9.82,0,0,0,5.355-8.734,3.533,3.533,0,0,0,1.785-.5V45C30.638,44.984,30.554,44.955,30.466,44.941Z" transform="translate(0 0)"/>
      <path id="Path_978825" data-name="Path 978825" d="M256.191,48.884H258.4L261.079,35.5h7.3V33.712h-8.763l-2.542,12.706-2.386-5.566h-3.266v1.785h2.089Z" transform="translate(-223.376 -28.43)"/>
      <path id="Path_978826" data-name="Path 978826" d="M355.123,116.056l-2.046,2.046-2.046-2.046-1.262,1.262,2.046,2.046-2.046,2.046,1.262,1.262,2.046-2.046,2.046,2.046,1.262-1.262-2.046-2.046,2.046-2.046Z" transform="translate(-310.749 -101.588)"/>
      <path id="Path_978827" data-name="Path 978827" d="M424.779,71.959H421.8l1.9-1.428a2.677,2.677,0,1,0-4.283-2.142h1.785a.892.892,0,1,1,1.429.714l-3.214,2.41v2.231h5.355Z" transform="translate(-372.634 -56.86)"/>
    </g>
  </g>
</svg>
