<svg xmlns="http://www.w3.org/2000/svg" xmlns:xlink="http://www.w3.org/1999/xlink" width="108" height="108" viewBox="0 0 108 108">
  <defs>
    <filter id="Ellipse_11513" x="0" y="0" width="108" height="108" filterUnits="userSpaceOnUse">
      <feOffset dy="3" input="SourceAlpha"/>
      <feGaussianBlur stdDeviation="3" result="blur"/>
      <feFlood flood-opacity="0.161"/>
      <feComposite operator="in" in2="blur"/>
      <feComposite in="SourceGraphic"/>
    </filter>
  </defs>
  <g id="Group_1143918" data-name="Group 1143918" transform="translate(-1166 -515)">
    <g id="Group_1143499" data-name="Group 1143499" transform="translate(979 -642)">
      <g transform="matrix(1, 0, 0, 1, 187, 1157)" filter="url(#Ellipse_11513)">
        <g id="Ellipse_11513-2" data-name="Ellipse 11513" transform="translate(9 6)" fill="#fce8a6" stroke="#f8c624" stroke-width="3">
          <circle cx="45" cy="45" r="45" stroke="none"/>
          <circle cx="45" cy="45" r="43.5" fill="none"/>
        </g>
      </g>
    </g>
    <g id="Group_1143917" data-name="Group 1143917" transform="translate(1192.565 533.584)">
      <g id="Group_1143916" data-name="Group 1143916">
        <g id="Group_1143910" data-name="Group 1143910">
          <path id="Path_978797" data-name="Path 978797" d="M138.748,210.208V194.567a2.317,2.317,0,0,0-2.317-2.317H120.79V195.1l-5.592,3.329v5.592l5.592,2.917v3.266h17.958Z" transform="translate(-101.948 -170.137)" fill="#b3dafe"/>
          <path id="Path_978798" data-name="Path 978798" d="M273.249,192.251H269.8a2.317,2.317,0,0,1,2.317,2.317v15.641h3.451V194.568A2.317,2.317,0,0,0,273.249,192.251Z" transform="translate(-238.765 -170.138)" fill="#8ac9fe"/>
          <path id="Path_978799" data-name="Path 978799" d="M163.819,334.459H179.46a2.317,2.317,0,0,0,2.317-2.317V316.5h-5.649a.487.487,0,0,1-.469-.627,2.574,2.574,0,0,0,.114-.755,2.764,2.764,0,0,0-5.449-.654,2.557,2.557,0,0,0,.021,1.345c0,.014-.014.028,0,.041l0,.007a.492.492,0,0,1-.465.642h-6.062Z" transform="translate(-144.976 -276.43)" fill="#c9f6b0"/>
          <g id="Group_1143909" data-name="Group 1143909" transform="translate(31.033 40.071)">
            <path id="Path_978800" data-name="Path 978800" d="M272.115,348.375v15.641a2.317,2.317,0,0,1-2.317,2.317h3.451a2.317,2.317,0,0,0,2.317-2.317V348.375Z" transform="translate(-269.798 -348.375)" fill="#ade194"/>
          </g>
          <path id="Path_978801" data-name="Path 978801" d="M7.694,348.375v15.641a2.317,2.317,0,0,0,2.317,2.317H25.652v-5.652a.487.487,0,0,1,.615-.471l.089.022a2.229,2.229,0,0,0,.677.1,2.764,2.764,0,0,0,.628-5.456,2.5,2.5,0,0,0-1.3.027h-.014l-.079.019a.488.488,0,0,1-.612-.473v-6.071Z" transform="translate(-6.809 -308.304)" fill="#f58a97"/>
          <path id="Path_978802" data-name="Path 978802" fill="none" stroke="#000" stroke-linecap="round" stroke-linejoin="round" stroke-miterlimit="10" stroke-width="15"/>
          <path id="Path_978803" data-name="Path 978803" d="M25.652,192.251V197.9a.487.487,0,0,1-.627.469,2.575,2.575,0,0,0-.755-.114,2.764,2.764,0,0,0-.654,5.449,2.558,2.558,0,0,0,1.345-.02H25l.007,0a.492.492,0,0,1,.642.465v6.062H19.581a.488.488,0,0,0-.473.612c.007.026.013.053.019.079s0,.014,0,.014a2.5,2.5,0,0,1,.027,1.3,2.764,2.764,0,0,1-5.456-.628,2.228,2.228,0,0,1,.1-.677q.01-.045.022-.089a.487.487,0,0,0-.471-.615H7.694V194.568a2.317,2.317,0,0,1,2.317-2.317Z" transform="translate(-6.809 -170.138)" fill="#fff0ad"/>
        </g>
        <g id="Group_1143915" data-name="Group 1143915" transform="translate(24.085 0.863)">
          <circle id="Ellipse_11558" data-name="Ellipse 11558" cx="16.961" cy="16.961" r="16.961" fill="#eaf6ff"/>
          <path id="Path_978804" data-name="Path 978804" d="M343.574,7.5a17.136,17.136,0,0,0-1.725.087,16.962,16.962,0,0,1,0,33.748,17.171,17.171,0,0,0,1.725.087,16.961,16.961,0,0,0,0-33.922Z" transform="translate(-326.613 -7.5)" fill="#d8ecfe"/>
          <g id="Group_1143914" data-name="Group 1143914" transform="translate(4.157 6.958)">
            <g id="Group_1143913" data-name="Group 1143913">
              <g id="Group_1143911" data-name="Group 1143911" transform="translate(12.804 0)">
                <path id="Path_978805" data-name="Path 978805" d="M356.849,71.8a4.059,4.059,0,0,1,4.268-3.811,4.245,4.245,0,0,1,4.02,2.568.467.467,0,0,0,.421.3,4.035,4.035,0,0,1,4.1,3.8,3.485,3.485,0,0,1-.569,1.9.46.46,0,0,0-.025.463,5.175,5.175,0,0,1,.594,2.4,5.774,5.774,0,0,1-4.106,5.332.453.453,0,0,0-.289.314A4.187,4.187,0,0,1,361.117,88a4.059,4.059,0,0,1-4.268-3.811Z" transform="translate(-356.849 -67.99)" fill="#fdd1d5"/>
                <path id="Path_978806" data-name="Path 978806" d="M388.611,76.561a3.485,3.485,0,0,0,.569-1.9,4.035,4.035,0,0,0-4.1-3.8.467.467,0,0,1-.421-.3,4.245,4.245,0,0,0-4.02-2.568,4.688,4.688,0,0,0-1.73.327,4.024,4.024,0,0,1,2.3,2.241.467.467,0,0,0,.421.3,4.035,4.035,0,0,1,4.1,3.8,3.485,3.485,0,0,1-.569,1.9.46.46,0,0,0-.025.463,5.175,5.175,0,0,1,.594,2.4,5.774,5.774,0,0,1-4.106,5.332.453.453,0,0,0-.289.314,3.957,3.957,0,0,1-2.417,2.6,4.69,4.69,0,0,0,1.727.326,4.187,4.187,0,0,0,4.141-2.929.453.453,0,0,1,.289-.314,5.774,5.774,0,0,0,4.106-5.332,5.176,5.176,0,0,0-.594-2.4A.46.46,0,0,1,388.611,76.561Z" transform="translate(-376.376 -67.99)" fill="#f6b2bb"/>
              </g>
              <g id="Group_1143912" data-name="Group 1143912">
                <path id="Path_978807" data-name="Path 978807" d="M258.335,71.8a4.059,4.059,0,0,0-4.268-3.811,4.245,4.245,0,0,0-4.02,2.568.467.467,0,0,1-.421.3,4.035,4.035,0,0,0-4.1,3.8,3.485,3.485,0,0,0,.569,1.9.46.46,0,0,1,.024.463,5.175,5.175,0,0,0-.594,2.4,5.774,5.774,0,0,0,4.106,5.332.453.453,0,0,1,.289.314A4.187,4.187,0,0,0,254.067,88a4.059,4.059,0,0,0,4.268-3.811Z" transform="translate(-245.531 -67.99)" fill="#fdd1d5"/>
                <path id="Path_978808" data-name="Path 978808" d="M306.479,67.99a4.648,4.648,0,0,0-1.721.327A3.821,3.821,0,0,1,307.3,71.8V84.186a3.822,3.822,0,0,1-2.541,3.485,4.665,4.665,0,0,0,1.724.326,4.059,4.059,0,0,0,4.268-3.811V71.8A4.059,4.059,0,0,0,306.479,67.99Z" transform="translate(-297.943 -67.99)" fill="#f6b2bb"/>
              </g>
            </g>
          </g>
        </g>
      </g>
      <path id="Path_978809" data-name="Path 978809" d="M37.08,16.925a.863.863,0,0,0,.363-1.165,2.283,2.283,0,0,1-.116-1.8.863.863,0,1,0-1.636-.547,3.993,3.993,0,0,0,.225,3.149.864.864,0,0,0,1.165.363Zm-.618,3.354a.863.863,0,0,0-.553,1.087,2.284,2.284,0,0,1-.188,1.794.863.863,0,0,0,1.521.814,3.993,3.993,0,0,0,.308-3.141.863.863,0,0,0-1.087-.553ZM41.217,0A17.844,17.844,0,0,0,23.394,17.823a18.041,18.041,0,0,0,.326,3.427H3.374a3.183,3.183,0,0,0-3.18,3.18V46.435a.863.863,0,0,0,1.725,0v-5.5H6.238a3.313,3.313,0,0,0-.039.519A3.6,3.6,0,0,0,7.605,44.32a3.653,3.653,0,0,0,3.16.634,3.6,3.6,0,0,0,2.592-2.676,3.415,3.415,0,0,0,.053-1.345h4.742v5.208a1.342,1.342,0,0,0,.525,1.069,1.5,1.5,0,0,0,1.169.237.86.86,0,0,0,.116-.026,1.647,1.647,0,0,1,.864-.015,1.9,1.9,0,0,1-.43,3.753,1.376,1.376,0,0,1-.419-.057q-.035-.011-.071-.019l-.046-.012a1.35,1.35,0,0,0-1.708,1.3v4.79H3.374a1.456,1.456,0,0,1-1.454-1.455V50.461a.863.863,0,0,0-1.725,0v5.251a3.183,3.183,0,0,0,3.18,3.18H34.655a3.183,3.183,0,0,0,3.18-3.18V35.33a18.065,18.065,0,0,0,3.383.316A17.823,17.823,0,1,0,41.217,0ZM18.152,39.208H12.944a1.342,1.342,0,0,0-1.069.525,1.488,1.488,0,0,0-.212,1.285,1.648,1.648,0,0,1,.015.864,1.9,1.9,0,0,1-3.753-.43A1.978,1.978,0,0,1,8,40.962a1.4,1.4,0,0,0-.215-1.221,1.342,1.342,0,0,0-1.076-.533H1.919V24.43a1.456,1.456,0,0,1,1.454-1.454H18.152v4.319a3.425,3.425,0,0,0-.519-.04,3.627,3.627,0,0,0-.859,7.15,3.466,3.466,0,0,0,1.378.063v4.74Zm17.958,16.5a1.456,1.456,0,0,1-1.454,1.455H19.877V52.848a3.312,3.312,0,0,0,.519.039,3.627,3.627,0,0,0,.826-7.158,3.411,3.411,0,0,0-1.345-.053V40.934h5.2a1.334,1.334,0,0,0,1.079-.54,1.438,1.438,0,0,0,.212-1.257,1.706,1.706,0,0,1-.01-.9,1.9,1.9,0,0,1,3.749.45,1.7,1.7,0,0,1-.076.5,1.35,1.35,0,0,0,1.294,1.741H36.11V55.711Zm5.108-21.79a15.9,15.9,0,0,1-10.028-3.5.863.863,0,0,0-1.076,1.349,17.686,17.686,0,0,0,6,3.144v4.3H31.791a3.425,3.425,0,0,0,.04-.519,3.627,3.627,0,0,0-7.15-.859,3.462,3.462,0,0,0-.063,1.378h-4.74v-5.2a1.334,1.334,0,0,0-.54-1.079,1.434,1.434,0,0,0-1.257-.212,1.7,1.7,0,0,1-.9.01,1.9,1.9,0,0,1,.45-3.749,1.7,1.7,0,0,1,.5.076,1.35,1.35,0,0,0,1.741-1.294V22.976h4.268a17.7,17.7,0,0,0,3,5.791.863.863,0,1,0,1.361-1.06,15.748,15.748,0,0,1-3.39-9.883,16.1,16.1,0,1,1,16.1,16.1ZM54.884,14.489a4.834,4.834,0,0,0-4.673-4.647,5.153,5.153,0,0,0-4.726-2.885,5.277,5.277,0,0,0-4.268,2.083,5.277,5.277,0,0,0-4.268-2.083,5.154,5.154,0,0,0-4.726,2.885,4.834,4.834,0,0,0-4.673,4.647,4.348,4.348,0,0,0,.588,2.174,5.987,5.987,0,0,0-.588,2.589,6.641,6.641,0,0,0,4.484,6.074,5.063,5.063,0,0,0,4.914,3.362,5.277,5.277,0,0,0,4.268-2.083,5.277,5.277,0,0,0,4.268,2.083A5.063,5.063,0,0,0,50.4,25.327a6.641,6.641,0,0,0,4.484-6.074,5.986,5.986,0,0,0-.588-2.589,4.347,4.347,0,0,0,.588-2.174ZM40.355,24.016a3.205,3.205,0,0,1-3.405,2.948,3.328,3.328,0,0,1-3.326-2.342,2.351,2.351,0,0,1,1.029-1.873.863.863,0,1,0-1.01-1.4,4.178,4.178,0,0,0-1.564,2.118,4.753,4.753,0,0,1-2.8-4.215A3.093,3.093,0,0,1,31.316,16a.863.863,0,1,0-.559-1.632,4.715,4.715,0,0,0-1.4.76,2.564,2.564,0,0,1-.084-.643,3.122,3.122,0,0,1,2.8-2.893,4.057,4.057,0,0,0,.885,1.691.863.863,0,0,0,1.3-1.134,2.242,2.242,0,0,1-.568-1.365A3.413,3.413,0,0,1,36.95,8.683a3.205,3.205,0,0,1,3.405,2.948V24.016ZM51.118,16c1.366.468,2.04,1.5,2.04,3.249a4.753,4.753,0,0,1-2.8,4.215,4.18,4.18,0,0,0-1.564-2.118.863.863,0,1,0-1.01,1.4,2.351,2.351,0,0,1,1.029,1.873,3.359,3.359,0,0,1-3.326,2.342,3.205,3.205,0,0,1-3.405-2.948V11.631a3.205,3.205,0,0,1,3.405-2.948,3.427,3.427,0,0,1,3.253,2.105,2.243,2.243,0,0,1-.568,1.365.863.863,0,0,0,1.3,1.134,4.057,4.057,0,0,0,.885-1.691,3.122,3.122,0,0,1,2.8,2.893,2.569,2.569,0,0,1-.084.643,4.715,4.715,0,0,0-1.4-.76A.863.863,0,0,0,51.118,16Zm-4.593,5.362a.863.863,0,0,0-1.641-.534,3.994,3.994,0,0,0,.307,3.141.863.863,0,1,0,1.521-.814,2.285,2.285,0,0,1-.188-1.794Zm-.873-8.5a.862.862,0,0,0-.545,1.091,2.284,2.284,0,0,1-.116,1.8.863.863,0,0,0,1.528.8,3.993,3.993,0,0,0,.225-3.148A.862.862,0,0,0,45.652,12.869Z" transform="translate(-0.172 0)"/>
    </g>
  </g>
</svg>
