<svg xmlns="http://www.w3.org/2000/svg" xmlns:xlink="http://www.w3.org/1999/xlink" width="108" height="108" viewBox="0 0 108 108">
  <defs>
    <filter id="Path_904820" x="0" y="0" width="108" height="108" filterUnits="userSpaceOnUse">
      <feOffset dy="3" input="SourceAlpha"/>
      <feGaussianBlur stdDeviation="3" result="blur"/>
      <feFlood flood-opacity="0.161"/>
      <feComposite operator="in" in2="blur"/>
      <feComposite in="SourceGraphic"/>
    </filter>
  </defs>
  <g id="Group_1143936" data-name="Group 1143936" transform="translate(-201 -2901)">
    <g transform="matrix(1, 0, 0, 1, 201, 2901)" filter="url(#Path_904820)">
      <g id="Path_904820-2" data-name="Path 904820" transform="translate(9 6)" fill="#ecf4fa">
        <path d="M 45 88.5 C 39.12687683105469 88.5 33.43022537231445 87.35007476806641 28.06830024719238 85.08217620849609 C 22.88852500915527 82.89131164550781 18.23629951477051 79.75458526611328 14.2408504486084 75.75914764404297 C 10.24541282653809 71.76370239257812 7.108687400817871 67.11147308349609 4.917825222015381 61.93170166015625 C 2.649924993515015 56.56977462768555 1.5 50.87312316894531 1.5 45 C 1.5 39.12687683105469 2.649924993515015 33.43022537231445 4.917825222015381 28.06830024719238 C 7.108687400817871 22.88852500915527 10.24541282653809 18.23629951477051 14.2408504486084 14.2408504486084 C 18.23629951477051 10.24541282653809 22.88852500915527 7.108687400817871 28.06830024719238 4.917825222015381 C 33.43022537231445 2.649924993515015 39.12687683105469 1.5 45 1.5 C 50.87312316894531 1.5 56.56977462768555 2.649924993515015 61.93170166015625 4.917825222015381 C 67.11147308349609 7.108687400817871 71.76370239257812 10.24541282653809 75.75914764404297 14.2408504486084 C 79.75458526611328 18.23629951477051 82.89131164550781 22.88852500915527 85.08217620849609 28.06830024719238 C 87.35007476806641 33.43022537231445 88.5 39.12687683105469 88.5 45 C 88.5 50.87312316894531 87.35007476806641 56.56977462768555 85.08217620849609 61.93170166015625 C 82.89131164550781 67.11147308349609 79.75458526611328 71.76370239257812 75.75914764404297 75.75914764404297 C 71.76370239257812 79.75458526611328 67.11147308349609 82.89131164550781 61.93170166015625 85.08217620849609 C 56.56977462768555 87.35007476806641 50.87312316894531 88.5 45 88.5 Z" stroke="none"/>
        <path d="M 45 3 C 39.32871246337891 3 33.82865524291992 4.110054016113281 28.65262985229492 6.299339294433594 C 23.65165710449219 8.414573669433594 19.15968322753906 11.44334411621094 15.301513671875 15.301513671875 C 11.44334411621094 19.15968322753906 8.414573669433594 23.65165710449219 6.299339294433594 28.65262985229492 C 4.110054016113281 33.82865524291992 3 39.32871246337891 3 45 C 3 50.67128753662109 4.110054016113281 56.17134475708008 6.299339294433594 61.34737396240234 C 8.414573669433594 66.34834289550781 11.44334411621094 70.84031677246094 15.301513671875 74.698486328125 C 19.15968322753906 78.55665588378906 23.65165710449219 81.58542633056641 28.65262985229492 83.70066070556641 C 33.82865524291992 85.88994598388672 39.32871246337891 87 45 87 C 50.67128753662109 87 56.17134475708008 85.88994598388672 61.34737396240234 83.70066070556641 C 66.34834289550781 81.58542633056641 70.84031677246094 78.55665588378906 74.698486328125 74.698486328125 C 78.55665588378906 70.84031677246094 81.58542633056641 66.34834289550781 83.70066070556641 61.34737396240234 C 85.88994598388672 56.17134475708008 87 50.67128753662109 87 45 C 87 39.32871246337891 85.88994598388672 33.82865524291992 83.70066070556641 28.65262985229492 C 81.58542633056641 23.65165710449219 78.55665588378906 19.15968322753906 74.698486328125 15.301513671875 C 70.84031677246094 11.44334411621094 66.34834289550781 8.414573669433594 61.34737396240234 6.299339294433594 C 56.17134475708008 4.110054016113281 50.67128753662109 3 45 3 M 45 0 C 69.85281372070312 0 90 20.14718627929688 90 45 C 90 69.85281372070312 69.85281372070312 90 45 90 C 20.14718627929688 90 0 69.85281372070312 0 45 C 0 20.14718627929688 20.14718627929688 0 45 0 Z" stroke="none" fill="#2a5673"/>
      </g>
    </g>
    <g id="Group_1143935" data-name="Group 1143935" transform="translate(210.719 2922.728)">
      <g id="Group_1143934" data-name="Group 1143934" transform="translate(15.148 5.758)">
        <path id="Path_978847" data-name="Path 978847" d="M369.871,46.392a8,8,0,1,1-8,8A8.021,8.021,0,0,1,369.871,46.392Z" transform="translate(-319.602 -46.392)" fill="#fa4655" fill-rule="evenodd"/>
        <path id="Path_978848" data-name="Path 978848" d="M29.265,46.392a8,8,0,1,1-8,8A8.021,8.021,0,0,1,29.265,46.392Z" transform="translate(-21.268 -46.392)" fill="#4bd16d" fill-rule="evenodd"/>
        <path id="Path_978849" data-name="Path 978849" d="M150.19,275.2v5.675h-10.93l-.616-2.3a2.551,2.551,0,0,0-2.495-1.914h-2.884a1.924,1.924,0,0,1-1.914-1.66l-.83-5.752h-3.581l1.791-3.423a16.776,16.776,0,0,0,1.931-6.72c1.562-19.451,41.387-8.573,19.529,16.1Z" transform="translate(-113.824 -223.957)" fill="#fac896" fill-rule="evenodd"/>
      </g>
      <path id="Path_978850" data-name="Path 978850" d="M185.417,6.991h17.52V29.014h-17.52Z" transform="translate(-149.897 -6.123)" fill="#eaf6ff"/>
      <path id="Path_978851" data-name="Path 978851" d="M23.836,54.389a8.03,8.03,0,0,1,6.712-7.895,8.152,8.152,0,0,0-1.283-.1,8,8,0,1,0,0,15.993,7.744,7.744,0,0,0,1.284-.106,8.026,8.026,0,0,1-6.712-7.891Z" transform="translate(-6.12 -40.634)" fill="#44bc62" fill-rule="evenodd"/>
      <path id="Path_978852" data-name="Path 978852" d="M364.442,54.389a8.03,8.03,0,0,1,6.712-7.895,8.152,8.152,0,0,0-1.284-.1,8,8,0,1,0,0,15.993,7.745,7.745,0,0,0,1.284-.106A8.026,8.026,0,0,1,364.442,54.389Z" transform="translate(-304.454 -40.634)" fill="#e63140" fill-rule="evenodd"/>
      <path id="Path_978853" data-name="Path 978853" d="M185.417,6.991h1.6V29.014h-1.6Z" transform="translate(-149.897 -6.123)" fill="#d3dde6"/>
      <path id="Path_978854" data-name="Path 978854" d="M130.742,265.833a16.725,16.725,0,0,0,1.935-6.719c.521-6.5,5.319-9.615,10.66-9.956-6.09-.38-12.084,2.646-12.671,9.956a16.777,16.777,0,0,1-1.931,6.719l-1.791,3.423h2.009Zm9.917,12.749a2.555,2.555,0,0,0-2.5-1.914h-2.009a2.551,2.551,0,0,1,2.495,1.914l.616,2.3h2.012Zm-7.3-3.574-.83-5.752h-2.009l.83,5.752a1.924,1.924,0,0,0,1.914,1.66h2.009A1.924,1.924,0,0,1,133.363,275.008Z" transform="translate(-98.68 -218.208)" fill="#edb47c" fill-rule="evenodd"/>
      <path id="Path_978855" data-name="Path 978855" d="M29.285,47.223l-1.791,3.423a.867.867,0,0,0,.768,1.269h2.83l.72,5.01a2.786,2.786,0,0,0,2.775,2.4h2.885A1.7,1.7,0,0,1,39.13,60.6l.616,2.3a.867.867,0,0,0,.838.643H51.514a.867.867,0,0,0,.867-.867V57.328c8.746-10.02,6.827-16.955,4.888-20.21a14.51,14.51,0,0,0-7.538-5.975,17.03,17.03,0,0,0-9.63-.7,11.053,11.053,0,0,0-8.98,10.391,15.962,15.962,0,0,1-1.836,6.386ZM40.494,32.135c5.806-1.35,12.52,1.229,15.285,5.87,2.957,4.965,1.212,11.507-4.915,18.421a.867.867,0,0,0-.218.575v4.807h-9.4l-.443-1.658a3.411,3.411,0,0,0-3.332-2.561H34.588a1.063,1.063,0,0,1-1.059-.913L32.7,50.925a.867.867,0,0,0-.858-.744H29.7l1.127-2.155a17.619,17.619,0,0,0,2.027-7.05A9.34,9.34,0,0,1,40.494,32.135Zm4.4,21.154v.605a.867.867,0,1,1-1.734,0V53.29a.867.867,0,1,1,1.734,0ZM37.971,42.419a6.056,6.056,0,1,1,6.923,6v2.414a.867.867,0,1,1-1.734,0V47.612a.867.867,0,0,1,.867-.867,4.324,4.324,0,1,0-4.322-4.325.867.867,0,1,1-1.734,0ZM62.2,11.761a.867.867,0,1,1,1.226-1.227l1.995,1.993,1.993-1.993a.867.867,0,1,1,1.226,1.226l-1.992,1.993,1.992,1.991a.867.867,0,0,1-1.226,1.227L65.418,14.98l-1.995,1.995A.867.867,0,0,1,62.2,15.748l1.994-1.994ZM55.388,31.716a.863.863,0,0,1,.116-.433l4.4-7.634a.867.867,0,1,1,1.5.867l-4.4,7.634a.867.867,0,0,1-1.618-.434ZM28.651,23.649l4.4,7.634a.867.867,0,1,1-1.5.867l-4.4-7.634a.867.867,0,1,1,1.5-.867Zm-9.469-8.9a.867.867,0,1,1,1.226-1.226l1.364,1.364L25.88,10.78a.867.867,0,1,1,1.226,1.226l-4.721,4.721a.867.867,0,0,1-1.226,0Zm3.963,7.867a8.864,8.864,0,1,0-8.864-8.864,8.864,8.864,0,0,0,8.864,8.864Zm0-15.993a7.129,7.129,0,1,1-7.13,7.13,7.129,7.129,0,0,1,7.13-7.13ZM65.417,22.618a8.864,8.864,0,1,0-8.864-8.864,8.864,8.864,0,0,0,8.864,8.864Zm0-15.993a7.129,7.129,0,1,1-7.129,7.129,7.129,7.129,0,0,1,7.129-7.129ZM35.52,23.758H53.04a.867.867,0,0,0,.867-.867V.868A.867.867,0,0,0,53.04,0H35.52a.867.867,0,0,0-.867.867V22.89A.867.867,0,0,0,35.52,23.758Zm.867-22.023H52.174V22.023H36.388Zm13.7,3.594a.867.867,0,0,1-.867.867H39.337a.867.867,0,1,1,0-1.734h9.886A.867.867,0,0,1,50.09,5.328Zm0,8.735a.867.867,0,0,1-.867.867H39.337a.867.867,0,1,1,0-1.734h9.886a.867.867,0,0,1,.867.867Zm0,4.366a.867.867,0,0,1-.867.867H39.337a.867.867,0,1,1,0-1.734h9.886a.867.867,0,0,1,.867.868Zm0-8.735a.867.867,0,0,1-.867.867H39.337a.867.867,0,1,1,0-1.734h9.886a.867.867,0,0,1,.867.867Z" transform="translate(0 0)"/>
    </g>
  </g>
</svg>
