<svg xmlns="http://www.w3.org/2000/svg" xmlns:xlink="http://www.w3.org/1999/xlink" width="108" height="108" viewBox="0 0 108 108">
  <defs>
    <filter id="Ellipse_11513" x="0" y="0" width="108" height="108" filterUnits="userSpaceOnUse">
      <feOffset dy="3" input="SourceAlpha"/>
      <feGaussianBlur stdDeviation="3" result="blur"/>
      <feFlood flood-opacity="0.161"/>
      <feComposite operator="in" in2="blur"/>
      <feComposite in="SourceGraphic"/>
    </filter>
  </defs>
  <g id="Group_1143908" data-name="Group 1143908" transform="translate(-326 -515)">
    <g id="Group_1143497" data-name="Group 1143497" transform="translate(139 -642)">
      <g transform="matrix(1, 0, 0, 1, 187, 1157)" filter="url(#Ellipse_11513)">
        <g id="Ellipse_11513-2" data-name="Ellipse 11513" transform="translate(9 6)" fill="#fce8a6" stroke="#f8c624" stroke-width="3">
          <circle cx="45" cy="45" r="45" stroke="none"/>
          <circle cx="45" cy="45" r="43.5" fill="none"/>
        </g>
      </g>
    </g>
    <g id="Group_1143907" data-name="Group 1143907" transform="translate(340.604 535.58)">
      <path id="Path_978786" data-name="Path 978786" d="M68.91,148.155a6.183,6.183,0,0,1-12.361.273,4.949,4.949,0,0,1-3.965-4.849c0-.105,0-.21.011-.314a7.415,7.415,0,0,1-6.338-8.591,7.42,7.42,0,0,1,0-12.369,7.414,7.414,0,0,1,6.374-8.6,4.948,4.948,0,0,1,4.415-4.243,6.184,6.184,0,0,1,11.863,2.45v36.238Z" transform="translate(-28.887 -92.846)" fill="#fc8086"/>
      <path id="Path_978787" data-name="Path 978787" d="M124.283,256.4a4.955,4.955,0,0,0,3.7,3.239,6.183,6.183,0,0,0,12.361-.273V232.384C140.339,245.494,133.18,256.15,124.283,256.4Z" transform="translate(-100.316 -204.057)" fill="#fa4954"/>
      <path id="Path_978788" data-name="Path 978788" d="M256,148.155a6.183,6.183,0,0,0,12.361.273,4.948,4.948,0,0,0,3.965-4.849c0-.105,0-.21-.011-.314a7.415,7.415,0,0,0,6.338-8.591,7.42,7.42,0,0,0,0-12.369,7.414,7.414,0,0,0-6.375-8.6,4.948,4.948,0,0,0-4.415-4.243A6.184,6.184,0,0,0,256,111.918v36.238Z" transform="translate(-215.976 -92.846)" fill="#fc8086"/>
      <path id="Path_978789" data-name="Path 978789" d="M281.972,254.6a7.394,7.394,0,0,0-2.179-5.25,21.518,21.518,0,0,1-21.513,21.06,21.749,21.749,0,0,1-2.281-.12v3.975a6.183,6.183,0,0,0,12.361.273,4.948,4.948,0,0,0,3.965-4.849c0-.105,0-.21-.011-.314a7.414,7.414,0,0,0,6.338-8.591A7.412,7.412,0,0,0,281.972,254.6Z" transform="translate(-215.977 -218.958)" fill="#fa4954"/>
      <circle id="Ellipse_11555" data-name="Ellipse 11555" cx="8.657" cy="8.657" r="8.657" transform="translate(10.959 7.447)" fill="#97e4f9"/>
      <path id="Path_978790" data-name="Path 978790" d="M43.1,74.534A8.655,8.655,0,0,1,31.013,86.618,8.656,8.656,0,1,0,43.1,74.534Z" transform="translate(-18.416 -65.449)" fill="#0acefa"/>
      <circle id="Ellipse_11556" data-name="Ellipse 11556" cx="8.657" cy="8.657" r="8.657" transform="translate(51.773 7.447)" fill="#6df3bf"/>
      <path id="Path_978791" data-name="Path 978791" d="M377.911,74.534a8.655,8.655,0,0,1-12.084,12.084,8.656,8.656,0,1,0,12.084-12.084Z" transform="translate(-312.416 -65.449)" fill="#05e29a"/>
      <circle id="Ellipse_11557" data-name="Ellipse 11557" cx="8.657" cy="8.657" r="8.657" transform="translate(31.366 0.644)" fill="#fba65c"/>
      <path id="Path_978792" data-name="Path 978792" d="M210.5,18.732A8.655,8.655,0,0,1,198.42,30.816,8.656,8.656,0,1,0,210.5,18.732Z" transform="translate(-165.416 -16.449)" fill="#fb9538"/>
      <path id="Path_978793" data-name="Path 978793" d="M65.312,100.332a.918.918,0,0,0,.918-.918V91a.918.918,0,1,0-1.837,0v.35a1.186,1.186,0,0,1-1.184,1.184.918.918,0,1,0,0,1.837,3,3,0,0,0,1.184-.242v5.281A.918.918,0,0,0,65.312,100.332Z" transform="translate(-45.881 -79.104)"/>
      <path id="Path_978794" data-name="Path 978794" d="M70.006,16.1a9.552,9.552,0,0,0-1.455-5.076A.918.918,0,1,0,66.995,12a7.732,7.732,0,1,1-2.8-2.66.918.918,0,1,0,.9-1.6,9.577,9.577,0,0,0-13.988,6.192,7.077,7.077,0,0,0-2.077-1.377A9.577,9.577,0,0,0,42.421.029a.918.918,0,0,0-.459,1.778,7.739,7.739,0,1,1-3.878,0A.918.918,0,0,0,37.626.029a9.577,9.577,0,0,0-6.609,12.525,7.079,7.079,0,0,0-2.077,1.377A9.577,9.577,0,0,0,14.952,7.739a.918.918,0,1,0,.9,1.6,7.738,7.738,0,1,1-2.8,2.66.918.918,0,0,0-1.556-.975,9.577,9.577,0,0,0,5.39,14.253,8.356,8.356,0,0,0-.537,2.944c0,.268.013.539.04.81l-.137.108a8.457,8.457,0,0,0-3.118,6.5,8.324,8.324,0,0,0,3.255,6.609c-.026.268-.04.538-.04.811h0a8.361,8.361,0,0,0,6.449,8.12,5.886,5.886,0,0,0,4.01,5.118A7.1,7.1,0,0,0,40.023,58.8,7.1,7.1,0,0,0,53.239,56.3a5.886,5.886,0,0,0,4.01-5.118,8.361,8.361,0,0,0,6.449-8.12h0c0-.273-.014-.543-.04-.811a8.324,8.324,0,0,0,3.255-6.609,8.457,8.457,0,0,0-3.118-6.5l-.137-.108c.027-.271.04-.542.04-.81a8.356,8.356,0,0,0-.537-2.944A9.591,9.591,0,0,0,70.006,16.1ZM33.839,60.575a5.251,5.251,0,0,1-5.149-4.167A5.9,5.9,0,0,0,33.537,50.6a.918.918,0,0,0-1.837,0,4.055,4.055,0,0,1-3.946,4.06,4.038,4.038,0,0,1-3.1-3.378,8.334,8.334,0,0,0,3.515-1.236.918.918,0,0,0-.981-1.553A6.5,6.5,0,0,1,23.774,49.5a6.513,6.513,0,0,1-5.59-6.434h0a6.47,6.47,0,0,1,3.076-5.528.918.918,0,0,0-.969-1.56,8.307,8.307,0,0,0-3.445,4.233,6.486,6.486,0,0,1-1.877-4.565,6.6,6.6,0,0,1,2.436-5.074c.137-.11.286-.219.441-.323l.035-.022a6.5,6.5,0,0,1,8.034.671.918.918,0,0,0,1.255-1.341,8.338,8.338,0,0,0-8.977-1.579,6.5,6.5,0,0,1,.532-2.341c.294.027.591.043.892.043a9.59,9.59,0,0,0,9.468-8.138,4.034,4.034,0,0,1,3.59,4,.918.918,0,1,0,1.837,0,5.874,5.874,0,0,0-4.781-5.763,5.247,5.247,0,0,1,2.079-1.568,9.588,9.588,0,0,0,7.3,4.617V26.35a2.671,2.671,0,0,1-2.668,2.668.918.918,0,1,0,0,1.837,4.48,4.48,0,0,0,2.668-.878v5.5A6.509,6.509,0,0,1,35.377,37.1a.918.918,0,0,0,.083,1.833q.042,0,.085,0A8.339,8.339,0,0,0,39.1,37.75v4.361a2.671,2.671,0,0,1-2.668,2.668.918.918,0,1,0,0,1.837,4.48,4.48,0,0,0,2.668-.878V55.31a5.271,5.271,0,0,1-5.266,5.266Zm28.015-32.6a8.338,8.338,0,0,0-8.977,1.579A.918.918,0,0,0,54.132,30.9a6.5,6.5,0,0,1,8.034-.671l.035.022c.154.1.3.213.441.323a6.6,6.6,0,0,1,2.436,5.074A6.486,6.486,0,0,1,63.2,40.211a8.307,8.307,0,0,0-3.445-4.233.918.918,0,0,0-.969,1.56,6.47,6.47,0,0,1,3.076,5.528h0a6.513,6.513,0,0,1-5.59,6.434A6.505,6.505,0,0,1,52.858,48.5a.918.918,0,1,0-.981,1.553,8.336,8.336,0,0,0,3.515,1.236,4.038,4.038,0,0,1-3.1,3.378,4.055,4.055,0,0,1-3.946-4.06.918.918,0,0,0-1.837,0,5.9,5.9,0,0,0,4.847,5.807,5.265,5.265,0,0,1-10.415-1.1V45.737a4.48,4.48,0,0,0,2.668.878.918.918,0,1,0,0-1.837,2.671,2.671,0,0,1-2.668-2.668V37.75A8.338,8.338,0,0,0,44.5,38.929c.029,0,.057,0,.085,0a.918.918,0,0,0,.083-1.833,6.508,6.508,0,0,1-3.728-1.624v-5.5a4.48,4.48,0,0,0,2.668.878.918.918,0,0,0,0-1.837,2.671,2.671,0,0,1-2.668-2.668V18.832a9.587,9.587,0,0,0,7.3-4.617,5.246,5.246,0,0,1,2.079,1.568,5.874,5.874,0,0,0-4.781,5.763.918.918,0,1,0,1.837,0,4.034,4.034,0,0,1,3.59-4A9.59,9.59,0,0,0,60.43,25.68c.3,0,.6-.016.892-.043a6.5,6.5,0,0,1,.532,2.342Z" transform="translate(0 0)"/>
      <path id="Path_978795" data-name="Path 978795" d="M403.749,91.922a.918.918,0,0,0,0-1.837h-4.205a.918.918,0,0,0-.918.918v2.968a2.158,2.158,0,0,0,2.155,2.155h1.731a.319.319,0,0,1,.319.319v1.732a.319.319,0,0,1-.319.319h-2.968a.918.918,0,0,0,0,1.837h2.968a2.158,2.158,0,0,0,2.155-2.155V96.445a2.157,2.157,0,0,0-2.155-2.155h-1.731a.319.319,0,0,1-.319-.319v-2.05Z" transform="translate(-341.217 -79.104)"/>
      <path id="Path_978796" data-name="Path 978796" d="M231.219,36.429a.918.918,0,1,0,1.837,0,.309.309,0,0,1,.308-.308h1.752a.309.309,0,0,1,.308.308v1.752a.309.309,0,0,1-.308.308h-1.226a.918.918,0,1,0,0,1.837h1.226a.309.309,0,0,1,.308.308v1.752a.309.309,0,0,1-.308.308h-1.752a.309.309,0,0,1-.308-.308.918.918,0,1,0-1.837,0,2.147,2.147,0,0,0,2.145,2.145h1.752a2.147,2.147,0,0,0,2.145-2.145V40.634a2.131,2.131,0,0,0-.388-1.226,2.131,2.131,0,0,0,.388-1.226V36.429a2.147,2.147,0,0,0-2.145-2.145h-1.752A2.147,2.147,0,0,0,231.219,36.429Z" transform="translate(-194.217 -30.105)"/>
    </g>
  </g>
</svg>
