<svg xmlns="http://www.w3.org/2000/svg" xmlns:xlink="http://www.w3.org/1999/xlink" width="108" height="108" viewBox="0 0 108 108">
  <defs>
    <filter id="Path_904820" x="0" y="0" width="108" height="108" filterUnits="userSpaceOnUse">
      <feOffset dy="3" input="SourceAlpha"/>
      <feGaussianBlur stdDeviation="3" result="blur"/>
      <feFlood flood-opacity="0.161"/>
      <feComposite operator="in" in2="blur"/>
      <feComposite in="SourceGraphic"/>
    </filter>
  </defs>
  <g id="Group_1143939" data-name="Group 1143939" transform="translate(-200.999 -1537)">
    <g transform="matrix(1, 0, 0, 1, 201, 1537)" filter="url(#Path_904820)">
      <g id="Path_904820-2" data-name="Path 904820" transform="translate(9 6)" fill="#ecf4fa">
        <path d="M 45 88.5 C 39.12687683105469 88.5 33.43022537231445 87.35007476806641 28.06830024719238 85.08217620849609 C 22.88852500915527 82.89131164550781 18.23629951477051 79.75458526611328 14.2408504486084 75.75914764404297 C 10.24541282653809 71.76370239257812 7.108687400817871 67.11147308349609 4.917825222015381 61.93170166015625 C 2.649924993515015 56.56977462768555 1.5 50.87312316894531 1.5 45 C 1.5 39.12687683105469 2.649924993515015 33.43022537231445 4.917825222015381 28.06830024719238 C 7.108687400817871 22.88852500915527 10.24541282653809 18.23629951477051 14.2408504486084 14.2408504486084 C 18.23629951477051 10.24541282653809 22.88852500915527 7.108687400817871 28.06830024719238 4.917825222015381 C 33.43022537231445 2.649924993515015 39.12687683105469 1.5 45 1.5 C 50.87312316894531 1.5 56.56977462768555 2.649924993515015 61.93170166015625 4.917825222015381 C 67.11147308349609 7.108687400817871 71.76370239257812 10.24541282653809 75.75914764404297 14.2408504486084 C 79.75458526611328 18.23629951477051 82.89131164550781 22.88852500915527 85.08217620849609 28.06830024719238 C 87.35007476806641 33.43022537231445 88.5 39.12687683105469 88.5 45 C 88.5 50.87312316894531 87.35007476806641 56.56977462768555 85.08217620849609 61.93170166015625 C 82.89131164550781 67.11147308349609 79.75458526611328 71.76370239257812 75.75914764404297 75.75914764404297 C 71.76370239257812 79.75458526611328 67.11147308349609 82.89131164550781 61.93170166015625 85.08217620849609 C 56.56977462768555 87.35007476806641 50.87312316894531 88.5 45 88.5 Z" stroke="none"/>
        <path d="M 45 3 C 39.32871246337891 3 33.82865524291992 4.110054016113281 28.65262985229492 6.299339294433594 C 23.65165710449219 8.414573669433594 19.15968322753906 11.44334411621094 15.301513671875 15.301513671875 C 11.44334411621094 19.15968322753906 8.414573669433594 23.65165710449219 6.299339294433594 28.65262985229492 C 4.110054016113281 33.82865524291992 3 39.32871246337891 3 45 C 3 50.67128753662109 4.110054016113281 56.17134475708008 6.299339294433594 61.34737396240234 C 8.414573669433594 66.34834289550781 11.44334411621094 70.84031677246094 15.301513671875 74.698486328125 C 19.15968322753906 78.55665588378906 23.65165710449219 81.58542633056641 28.65262985229492 83.70066070556641 C 33.82865524291992 85.88994598388672 39.32871246337891 87 45 87 C 50.67128753662109 87 56.17134475708008 85.88994598388672 61.34737396240234 83.70066070556641 C 66.34834289550781 81.58542633056641 70.84031677246094 78.55665588378906 74.698486328125 74.698486328125 C 78.55665588378906 70.84031677246094 81.58542633056641 66.34834289550781 83.70066070556641 61.34737396240234 C 85.88994598388672 56.17134475708008 87 50.67128753662109 87 45 C 87 39.32871246337891 85.88994598388672 33.82865524291992 83.70066070556641 28.65262985229492 C 81.58542633056641 23.65165710449219 78.55665588378906 19.15968322753906 74.698486328125 15.301513671875 C 70.84031677246094 11.44334411621094 66.34834289550781 8.414573669433594 61.34737396240234 6.299339294433594 C 56.17134475708008 4.110054016113281 50.67128753662109 3 45 3 M 45 0 C 69.85281372070312 0 90 20.14718627929688 90 45 C 90 69.85281372070312 69.85281372070312 90 45 90 C 20.14718627929688 90 0 69.85281372070312 0 45 C 0 20.14718627929688 20.14718627929688 0 45 0 Z" stroke="none" fill="#2a5673"/>
      </g>
    </g>
    <g id="Group_1143938" data-name="Group 1143938" transform="translate(224.998 1561.791)">
      <path id="Path_978856" data-name="Path 978856" d="M88.625,8a21.628,21.628,0,0,0-9.579,41.018,6,6,0,0,1,3.24,4.359c.154.889.063,1.179.089,6.375a6.25,6.25,0,1,0,12.5,0c.026-5.318-.064-5.5.09-6.375a6.015,6.015,0,0,1,3.25-4.364A21.628,21.628,0,0,0,88.625,8Z" transform="translate(-58.624 -7)" fill="#fff0a6"/>
      <path id="Path_978857" data-name="Path 978857" d="M70.75,32.134a21.572,21.572,0,0,0,1.43,7.795,1.1,1.1,0,0,1-1.964.977A21.632,21.632,0,0,1,93.045,8.381a1.1,1.1,0,0,1-.264,2.177A21.582,21.582,0,0,0,70.75,32.134Z" transform="translate(-58.624 -6.929)" fill="#fff8d6"/>
      <path id="Path_978858" data-name="Path 978858" d="M201.969,371c-.127.715-.09.63-.09,6.375a6.25,6.25,0,0,1-12.5,0c0-5.738.03-5.688-.089-6.375Z" transform="translate(-165.628 -324.624)" fill="#cbe3fa"/>
      <path id="Path_978859" data-name="Path 978859" d="M193.129,380.039a1.461,1.461,0,0,1-2.651.877,6.215,6.215,0,0,1-1.1-3.54c0-5.839.026-5.723-.089-6.375h1.817a1.465,1.465,0,0,1,1.286.765,6.042,6.042,0,0,1,.647,1.86C193.2,374.542,193.1,374.917,193.129,380.039Z" transform="translate(-165.628 -324.624)" fill="#eef7ff"/>
      <path id="Path_978860" data-name="Path 978860" d="M154.117,82.063a4.765,4.765,0,0,0-2.638-8.507c1-5.543-7.729-6.323-7.729-.7,0-5.625-8.733-4.845-7.729.7a4.765,4.765,0,0,0-2.638,8.507,6.325,6.325,0,0,0,2.671,11.919c1.025,4.525,7.7,3.743,7.7-.864,0,4.606,6.67,5.389,7.7.864a6.325,6.325,0,0,0,2.671-11.919Z" transform="translate(-113.75 -60.376)" fill="#ffa4b8"/>
      <path id="Path_978861" data-name="Path 978861" d="M242.984,69.494a1.107,1.107,0,0,1,.9,1.957A3.689,3.689,0,0,0,242.5,74.52s0,20.281,0,20.292a1.107,1.107,0,0,1-2.1.513,3.989,3.989,0,0,1-.4-1.8V73.27a3.6,3.6,0,0,1,2.984-3.776Z" transform="translate(-209.999 -60.787)" fill="#ffbfcb"/>
      <path id="Path_978862" data-name="Path 978862" d="M140.751,70.931a3.5,3.5,0,0,0-2.058,3.28.991.991,0,0,1-.746.972,4.772,4.772,0,0,0-2.6,7.6,1,1,0,0,1-.166,1.4,6.322,6.322,0,0,0-2.3,6.245,1,1,0,0,1-1.819.739,6.328,6.328,0,0,1,2.326-9.1,4.765,4.765,0,0,1,2.638-8.507c-.58-3.2,2.087-4.813,4.444-4.521A1,1,0,0,1,140.751,70.931Z" transform="translate(-113.752 -60.378)" fill="#ffbfcb"/>
      <g id="Group_1143937" data-name="Group 1143937">
        <path id="Path_978863" data-name="Path 978863" d="M140.11,90.912a4.768,4.768,0,0,0,5.1-3.054,7.326,7.326,0,0,0,3.485-13.018,5.775,5.775,0,0,0-3.137-9.184,4.778,4.778,0,0,0-5.444-4.693,1,1,0,1,0,.171,1.993,3.235,3.235,0,0,1,2.639.943,2.5,2.5,0,0,1,.635,1.78,3.674,3.674,0,0,0-2.528,2.453,1,1,0,0,0,1.909.6,1.823,1.823,0,0,1,1.571-1.223A3.765,3.765,0,0,1,146.5,74.22a1,1,0,0,0,.152,1.672A5.325,5.325,0,0,1,144.4,85.926a1,1,0,0,0-.934.778,2.756,2.756,0,0,1-3.134,2.221,2.8,2.8,0,0,1-2.585-2.864V65.8a4.622,4.622,0,0,0-2.513-4.325c-3.035-1.518-7.3.253-7.294,4.18A5.775,5.775,0,0,0,124.8,74.84a7.326,7.326,0,0,0,3.484,13.018,4.713,4.713,0,0,0,4.979,3.066,1,1,0,0,0-.178-1.992,2.76,2.76,0,0,1-3.06-2.228,1,1,0,0,0-.934-.778,5.325,5.325,0,0,1-2.247-10.035A1,1,0,0,0,127,74.22a3.765,3.765,0,0,1,1.988-6.714,1.823,1.823,0,0,1,1.571,1.223,1,1,0,1,0,1.909-.6,3.673,3.673,0,0,0-2.527-2.453,2.473,2.473,0,0,1,1-2.109c1.6-1.2,4.811-.8,4.811,2.231v20.26A4.784,4.784,0,0,0,140.11,90.912Z" transform="translate(-106.746 -53.319)"/>
        <path id="Path_978864" data-name="Path 978864" d="M268.51,195.257a1,1,0,0,0-1.017.983.992.992,0,0,1-.154.515,3.309,3.309,0,0,0-2.879-.031,1,1,0,0,0,.829,1.82,1.386,1.386,0,0,1,.9-.1,1.669,1.669,0,0,1,1.009,1.042,1,1,0,1,0,1.913-.584,3.788,3.788,0,0,0-.333-.741,2.99,2.99,0,0,0,.714-1.889,1,1,0,0,0-.983-1.017Z" transform="translate(-230.888 -170.849)"/>
        <path id="Path_978865" data-name="Path 978865" d="M176.212,191.905a1,1,0,0,0,1.252-.655,1.669,1.669,0,0,1,1.01-1.045,1,1,0,0,0-.494-1.938,3.167,3.167,0,0,0-.658.247,1.007,1.007,0,0,1,.332-1.394,1,1,0,0,0-1.043-1.707,3.007,3.007,0,0,0-.73,4.512,3.785,3.785,0,0,0-.331.737A1,1,0,0,0,176.212,191.905Z" transform="translate(-153.274 -162.108)"/>
        <path id="Path_978866" data-name="Path 978866" d="M81.625,0A22.628,22.628,0,0,0,71.6,42.914a5.013,5.013,0,0,1,2.7,3.633,1,1,0,0,0,.985.829h7.755a1,1,0,0,0,0-2H76.075a7.012,7.012,0,0,0-3.585-4.255,20.626,20.626,0,1,1,18.281-.006,6.98,6.98,0,0,0-3.9,6.3c0,5.727.027,5.614-.074,6.213H83.375a1,1,0,1,0,0,2h2.64a5.248,5.248,0,0,1-9.64-2.875V52H79.75a1,1,0,1,0,0-2H75.375a1,1,0,0,0-1,1v1.75a7.25,7.25,0,1,0,14.5,0V47.414a4.993,4.993,0,0,1,2.784-4.506A22.628,22.628,0,0,0,81.625,0Z" transform="translate(-51.624)"/>
        <path id="Path_978867" data-name="Path 978867" d="M4,173H1a1,1,0,0,0,0,2H4a1,1,0,0,0,0-2Z" transform="translate(0 -151.374)"/>
        <path id="Path_978868" data-name="Path 978868" d="M70.365,12.78a1,1,0,1,0,1.414-1.414L69.658,9.245a1,1,0,0,0-1.414,1.414Z" transform="translate(-59.457 -7.833)"/>
        <path id="Path_978869" data-name="Path 978869" d="M70.365,320.372l-2.121,2.121a1,1,0,1,0,1.414,1.414l2.121-2.121a1,1,0,0,0-1.414-1.414Z" transform="translate(-59.457 -280.068)"/>
        <path id="Path_978870" data-name="Path 978870" d="M444,173h-3a1,1,0,0,0,0,2h3a1,1,0,1,0,0-2Z" transform="translate(-384.998 -151.374)"/>
        <path id="Path_978871" data-name="Path 978871" d="M380.07,13.073a1,1,0,0,0,.707-.293l2.121-2.121a1,1,0,0,0-1.414-1.414l-2.121,2.121A1,1,0,0,0,380.07,13.073Z" transform="translate(-331.684 -7.833)"/>
        <path id="Path_978872" data-name="Path 978872" d="M380.785,320.372a1,1,0,0,0-1.414,1.414l2.121,2.121a1,1,0,0,0,1.414-1.414Z" transform="translate(-331.692 -280.068)"/>
      </g>
    </g>
  </g>
</svg>
