<svg xmlns="http://www.w3.org/2000/svg" xmlns:xlink="http://www.w3.org/1999/xlink" width="108" height="108" viewBox="0 0 108 108">
  <defs>
    <filter id="Path_904820" x="0" y="0" width="108" height="108" filterUnits="userSpaceOnUse">
      <feOffset dy="3" input="SourceAlpha"/>
      <feGaussianBlur stdDeviation="3" result="blur"/>
      <feFlood flood-opacity="0.161"/>
      <feComposite operator="in" in2="blur"/>
      <feComposite in="SourceGraphic"/>
    </filter>
  </defs>
  <g id="Group_1145183" data-name="Group 1145183" transform="translate(-726 -2367)">
    <g transform="matrix(1, 0, 0, 1, 726, 2367)" filter="url(#Path_904820)">
      <g id="Path_904820-2" data-name="Path 904820" transform="translate(9 6)" fill="#ecf4fa">
        <path d="M 45 88.5 C 39.12687683105469 88.5 33.43022537231445 87.35007476806641 28.06830024719238 85.08217620849609 C 22.88852500915527 82.89131164550781 18.23629951477051 79.75458526611328 14.2408504486084 75.75914764404297 C 10.24541282653809 71.76370239257812 7.108687400817871 67.11147308349609 4.917825222015381 61.93170166015625 C 2.649924993515015 56.56977462768555 1.5 50.87312316894531 1.5 45 C 1.5 39.12687683105469 2.649924993515015 33.43022537231445 4.917825222015381 28.06830024719238 C 7.108687400817871 22.88852500915527 10.24541282653809 18.23629951477051 14.2408504486084 14.2408504486084 C 18.23629951477051 10.24541282653809 22.88852500915527 7.108687400817871 28.06830024719238 4.917825222015381 C 33.43022537231445 2.649924993515015 39.12687683105469 1.5 45 1.5 C 50.87312316894531 1.5 56.56977462768555 2.649924993515015 61.93170166015625 4.917825222015381 C 67.11147308349609 7.108687400817871 71.76370239257812 10.24541282653809 75.75914764404297 14.2408504486084 C 79.75458526611328 18.23629951477051 82.89131164550781 22.88852500915527 85.08217620849609 28.06830024719238 C 87.35007476806641 33.43022537231445 88.5 39.12687683105469 88.5 45 C 88.5 50.87312316894531 87.35007476806641 56.56977462768555 85.08217620849609 61.93170166015625 C 82.89131164550781 67.11147308349609 79.75458526611328 71.76370239257812 75.75914764404297 75.75914764404297 C 71.76370239257812 79.75458526611328 67.11147308349609 82.89131164550781 61.93170166015625 85.08217620849609 C 56.56977462768555 87.35007476806641 50.87312316894531 88.5 45 88.5 Z" stroke="none"/>
        <path d="M 45 3 C 39.32871246337891 3 33.82865524291992 4.110054016113281 28.65262985229492 6.299339294433594 C 23.65165710449219 8.414573669433594 19.15968322753906 11.44334411621094 15.301513671875 15.301513671875 C 11.44334411621094 19.15968322753906 8.414573669433594 23.65165710449219 6.299339294433594 28.65262985229492 C 4.110054016113281 33.82865524291992 3 39.32871246337891 3 45 C 3 50.67128753662109 4.110054016113281 56.17134475708008 6.299339294433594 61.34737396240234 C 8.414573669433594 66.34834289550781 11.44334411621094 70.84031677246094 15.301513671875 74.698486328125 C 19.15968322753906 78.55665588378906 23.65165710449219 81.58542633056641 28.65262985229492 83.70066070556641 C 33.82865524291992 85.88994598388672 39.32871246337891 87 45 87 C 50.67128753662109 87 56.17134475708008 85.88994598388672 61.34737396240234 83.70066070556641 C 66.34834289550781 81.58542633056641 70.84031677246094 78.55665588378906 74.698486328125 74.698486328125 C 78.55665588378906 70.84031677246094 81.58542633056641 66.34834289550781 83.70066070556641 61.34737396240234 C 85.88994598388672 56.17134475708008 87 50.67128753662109 87 45 C 87 39.32871246337891 85.88994598388672 33.82865524291992 83.70066070556641 28.65262985229492 C 81.58542633056641 23.65165710449219 78.55665588378906 19.15968322753906 74.698486328125 15.301513671875 C 70.84031677246094 11.44334411621094 66.34834289550781 8.414573669433594 61.34737396240234 6.299339294433594 C 56.17134475708008 4.110054016113281 50.67128753662109 3 45 3 M 45 0 C 69.85281372070312 0 90 20.14718627929688 90 45 C 90 69.85281372070312 69.85281372070312 90 45 90 C 20.14718627929688 90 0 69.85281372070312 0 45 C 0 20.14718627929688 20.14718627929688 0 45 0 Z" stroke="none" fill="#2a5673"/>
      </g>
    </g>
    <g id="Group_1145182" data-name="Group 1145182" transform="translate(752.678 2392.7)">
      <g id="Group_1145165" data-name="Group 1145165" transform="translate(14.47 0.749)">
        <path id="Path_982783" data-name="Path 982783" d="M174.428,7.583H147.169a.851.851,0,0,0-.852.852V49.564l32.327,2.776h2.219a.855.855,0,0,0,.852-.852V15.234l-4.983-2.81Z" transform="translate(-146.317 -7.583)" fill="#f9f7f8" fill-rule="evenodd"/>
      </g>
      <g id="Group_1145166" data-name="Group 1145166" transform="translate(34.908 42.722)">
        <path id="Path_982784" data-name="Path 982784" d="M359.068,432.293h-3.782l-2.163,3.331,2.163,3.8h3.782l1.653-3.568Z" transform="translate(-353.124 -432.293)" fill="#a1d4ff" fill-rule="evenodd"/>
      </g>
      <g id="Group_1145167" data-name="Group 1145167" transform="translate(9.52 4.192)">
        <path id="Path_982785" data-name="Path 982785" d="M101.181,80.952V42.422h-4.1a.855.855,0,0,0-.852.852V81.327l.135-.045a5.48,5.48,0,0,1,.871-.305,5.69,5.69,0,0,1,.885-.025h3.059Z" transform="translate(-96.231 -42.422)" fill="#a1d4ff" fill-rule="evenodd"/>
      </g>
      <g id="Group_1145168" data-name="Group 1145168" transform="translate(8.904 42.721)">
        <path id="Path_982786" data-name="Path 982786" d="M118.165,432.285H92.506a5.69,5.69,0,0,0-.885.025L90,435.852l1.622,3.542a1.736,1.736,0,0,0,.3.025h26.245v-7.135Z" transform="translate(-89.999 -432.284)" fill="#ffe07d" fill-rule="evenodd"/>
      </g>
      <g id="Group_1145169" data-name="Group 1145169" transform="translate(42.581 0.741)">
        <path id="Path_982787" data-name="Path 982787" d="M438.047,15.151,430.761,7.5v6.8a.855.855,0,0,0,.852.852Z" transform="translate(-430.761 -7.5)" fill="#a1d4ff" fill-rule="evenodd"/>
      </g>
      <g id="Group_1145170" data-name="Group 1145170" transform="translate(11.995 4.192)">
        <path id="Path_982788" data-name="Path 982788" d="M121.274,42.422h2.475V81.011h-2.475Z" transform="translate(-121.274 -42.422)" fill="#80b4fb"/>
      </g>
      <g id="Group_1145171" data-name="Group 1145171" transform="translate(4.556 42.747)">
        <path id="Path_982789" data-name="Path 982789" d="M51.966,436.091l0-3.544a5.48,5.48,0,0,0-.871.305l-.135.045-3.9,1.314L46,436.089l1.068,1.879,4.031,1.359a5.481,5.481,0,0,0,.871.305Z" transform="translate(-45.999 -432.547)" fill="#ffe5c1" fill-rule="evenodd"/>
      </g>
      <g id="Group_1145172" data-name="Group 1145172" transform="translate(0.752 44.411)">
        <path id="Path_982790" data-name="Path 982790" d="M12.382,449.385l-4.443,1.5c-.283.106-.429.241-.429.375v.006c0,.132.146.266.429.373l4.443,1.5Z" transform="translate(-7.511 -449.385)" fill="#375e7d" fill-rule="evenodd"/>
      </g>
      <g id="Group_1145173" data-name="Group 1145173" transform="translate(40.852 42.722)">
        <path id="Path_982791" data-name="Path 982791" d="M419.216,437.977v-4.233a1.455,1.455,0,0,0-1.451-1.451h-4.493v7.135h4.493A1.455,1.455,0,0,0,419.216,437.977Z" transform="translate(-413.272 -432.293)" fill="#eb5468" fill-rule="evenodd"/>
      </g>
      <g id="Group_1145174" data-name="Group 1145174" transform="translate(36.02 0.749)">
        <path id="Path_982792" data-name="Path 982792" d="M378.224,15.234h-6.435a.855.855,0,0,1-.852-.852v-6.8h-6.561c11.141,15.22,8.174,36.958,6.264,41.981H373.7a1.455,1.455,0,0,1,1.451,1.451V52.34h2.219a.855.855,0,0,0,.852-.852Z" transform="translate(-364.377 -7.583)" fill="#dddaec" fill-rule="evenodd"/>
      </g>
      <g id="Group_1145175" data-name="Group 1145175" transform="translate(41.84 0)">
        <path id="Path_982793" data-name="Path 982793" d="M431.288,9.133h-6.435a1.6,1.6,0,0,1-1.593-1.593V.741a.741.741,0,0,1,1.482,0v6.8a.113.113,0,0,0,.11.11h6.435a.741.741,0,1,1,0,1.482Z" transform="translate(-423.261 0)"/>
      </g>
      <g id="Group_1145176" data-name="Group 1145176" transform="translate(10.526 47.151)">
        <path id="Path_982794" data-name="Path 982794" d="M132.951,477.133H106.706a1.733,1.733,0,0,1-.3-.025v2.681a1.733,1.733,0,0,0,.3.025h26.245Z" transform="translate(-106.406 -477.108)" fill="#ffd064" fill-rule="evenodd"/>
      </g>
      <g id="Group_1145177" data-name="Group 1145177" transform="translate(37.071 47.176)">
        <path id="Path_982795" data-name="Path 982795" d="M375.006,477.363h3.782v2.681h-3.782Z" transform="translate(-375.006 -477.363)" fill="#80b4fb" fill-rule="evenodd"/>
      </g>
      <g id="Group_1145178" data-name="Group 1145178" transform="translate(40.852 45.725)">
        <path id="Path_982796" data-name="Path 982796" d="M419.216,465.361V462.68a1.455,1.455,0,0,1-1.451,1.451h-4.493v2.681h4.493A1.455,1.455,0,0,0,419.216,465.361Z" transform="translate(-413.272 -462.68)" fill="#e5384f" fill-rule="evenodd"/>
      </g>
      <g id="Group_1145179" data-name="Group 1145179" transform="translate(5.624 45.487)">
        <path id="Path_982797" data-name="Path 982797" d="M61.705,464.615v-2.681a5.479,5.479,0,0,1-.871-.305L56.8,460.27v2.681l4.031,1.359A5.479,5.479,0,0,0,61.705,464.615Z" transform="translate(-56.803 -460.27)" fill="#fed1a3" fill-rule="evenodd"/>
      </g>
      <g id="Group_1145180" data-name="Group 1145180" transform="translate(0.752 44.949)">
        <path id="Path_982798" data-name="Path 982798" d="M12.382,458.047v-2.681l-1.591-.538-2.852.964c-.283.106-.429.241-.429.375v.006c0,.132.146.266.429.373Z" transform="translate(-7.511 -454.828)" fill="#2b4d66" fill-rule="evenodd"/>
      </g>
      <g id="Group_1145181" data-name="Group 1145181" transform="translate(0.011 0)">
        <path id="Path_982799" data-name="Path 982799" d="M294.864,109.054h-.151c.01-1.7.015-3.528-.006-3.778a1.238,1.238,0,0,0-.819-1.12,1.2,1.2,0,0,0-1.289.471c-.4.5-2.4,4.094-2.79,4.809a.741.741,0,0,0,.649,1.1h2.763c0,.468-.007.918-.011,1.323a.741.741,0,0,0,.735.748h.007a.741.741,0,0,0,.741-.735c0-.247.006-.734.011-1.335h.161a.741.741,0,1,0,0-1.482Zm-1.634,0h-1.513c.571-1.022,1.13-2,1.522-2.67C293.24,107.075,293.236,108.046,293.23,109.054Z" transform="translate(-261.086 -93.82)"/>
        <path id="Path_982800" data-name="Path 982800" d="M187.679,81.344h2.247l2.491,5.207a.742.742,0,0,0,.663.421h.006a.741.741,0,0,0,.664-.411l4.08-8.2h7.831a.741.741,0,1,0,0-1.482h-8.29a.741.741,0,0,0-.664.411L193.1,84.54l-2.036-4.257a.741.741,0,0,0-.669-.421h-2.714a.741.741,0,0,0,0,1.482Z" transform="translate(-168.465 -69.278)"/>
        <path id="Path_982801" data-name="Path 982801" d="M353.787,220.117a.741.741,0,0,0-.943.458l-1.179,3.412-1.212-3.417a.741.741,0,1,0-1.4.5l1.833,5.168-.664,1.92a.741.741,0,1,0,1.4.484l2.619-7.578a.741.741,0,0,0-.458-.943Z" transform="translate(-314.522 -198.326)"/>
        <path id="Path_982802" data-name="Path 982802" d="M232.512,223.214l1.47-1.948a.741.741,0,1,0-1.183-.893l-1.217,1.614-1.225-1.615a.741.741,0,1,0-1.181.9l1.479,1.949-1.673,2.218a.741.741,0,1,0,1.184.893l1.421-1.884,1.5,1.975a.741.741,0,1,0,1.181-.9Z" transform="translate(-206.217 -198.328)"/>
        <path id="Path_982803" data-name="Path 982803" d="M292.57,226.708h-1.242v-1.239a.741.741,0,0,0-1.482,0v1.239h-1.287a.741.741,0,0,0,0,1.482h1.287v1.29a.741.741,0,0,0,1.482,0v-1.29h1.242a.741.741,0,0,0,0-1.482Z" transform="translate(-259.374 -202.518)"/>
        <path id="Path_982804" data-name="Path 982804" d="M189.5,212.319a.741.741,0,0,0,.524-1.265,5.41,5.41,0,0,1,0-7.653.741.741,0,0,0-1.048-1.049,6.892,6.892,0,0,0,0,9.75A.738.738,0,0,0,189.5,212.319Z" transform="translate(-168.477 -182.159)"/>
        <path id="Path_982805" data-name="Path 982805" d="M407.849,202.353a.741.741,0,0,0,0,1.048,5.41,5.41,0,0,1,0,7.653A.741.741,0,1,0,408.9,212.1a6.892,6.892,0,0,0,0-9.749A.741.741,0,0,0,407.849,202.353Z" transform="translate(-367.348 -182.159)"/>
        <path id="Path_982806" data-name="Path 982806" d="M205.491,332.073h-5.143a.741.741,0,1,0,0,1.482h5.143a.741.741,0,1,0,0-1.482Z" transform="translate(-179.881 -299.255)"/>
        <path id="Path_982807" data-name="Path 982807" d="M205.491,364.331h-5.143a.741.741,0,1,0,0,1.482h5.143a.741.741,0,1,0,0-1.482Z" transform="translate(-179.881 -328.325)"/>
        <path id="Path_982808" data-name="Path 982808" d="M50.4,7.881,43.118.23A.741.741,0,0,0,42.581,0H15.322a1.6,1.6,0,0,0-1.593,1.593V3.451H10.372A1.6,1.6,0,0,0,8.779,5.044V23.771a.741.741,0,1,0,1.482,0V5.044a.113.113,0,0,1,.11-.11h3.357V41.981H11.16a3.384,3.384,0,0,0-.9.066V27.192a.741.741,0,1,0-1.482,0V42.566L.944,45.211l-.025.009c-.79.3-.908.8-.908,1.07s.118.772.908,1.07l.025.009s8.673,2.937,8.757,2.97a2.724,2.724,0,0,0,1.349.261h34.3a2.195,2.195,0,0,0,2.192-2.192V46.24h1.477a1.6,1.6,0,0,0,1.593-1.593V8.392a.741.741,0,0,0-.2-.511ZM4.882,47.134l-2.5-.844,2.5-.844Zm4.9,1.655-3.42-1.154V44.946l3.42-1.154ZM43.322,2.594l4.815,5.056H43.432a.113.113,0,0,1-.11-.11ZM40.111,49.116h-2.3V43.464h2.3Zm5.944-.71a.711.711,0,0,1-.71.71H41.594V43.464h3.752a.711.711,0,0,1,.71.71Zm3.07-3.759a.113.113,0,0,1-.11.11H47.538v-.584a2.195,2.195,0,0,0-2.192-2.192H32.1a.741.741,0,1,0,0,1.482H36.33v5.653H11.267V43.463H28.843a.741.741,0,0,0,0-1.482H15.211V1.593a.111.111,0,0,1,.11-.11H41.84V7.54a1.6,1.6,0,0,0,1.593,1.593h5.693Z" transform="translate(-0.011 0)"/>
      </g>
    </g>
  </g>
</svg>
