<svg xmlns="http://www.w3.org/2000/svg" xmlns:xlink="http://www.w3.org/1999/xlink" width="108" height="108" viewBox="0 0 108 108">
  <defs>
    <filter id="Fondo" x="0" y="0" width="108" height="108" filterUnits="userSpaceOnUse">
      <feOffset dy="3" input="SourceAlpha"/>
      <feGaussianBlur stdDeviation="3" result="blur"/>
      <feFlood flood-opacity="0.161"/>
      <feComposite operator="in" in2="blur"/>
      <feComposite in="SourceGraphic"/>
    </filter>
  </defs>
  <g id="Group_1145237" data-name="Group 1145237" transform="translate(-1166 -7398)">
    <g id="Group_1145229" data-name="Group 1145229">
      <g transform="matrix(1, 0, 0, 1, 1166, 7398)" filter="url(#Fondo)">
        <g id="Fondo-2" data-name="Fondo" transform="translate(9 6)" fill="#fef8e7" stroke="#bca724" stroke-width="3">
          <circle cx="45" cy="45" r="45" stroke="none"/>
          <circle cx="45" cy="45" r="43.5" fill="none"/>
        </g>
      </g>
      <g id="Group_1145228" data-name="Group 1145228" transform="translate(1186 7417)">
        <g id="Group_1145227" data-name="Group 1145227">
          <circle id="Ellipse_11575" data-name="Ellipse 11575" cx="4" cy="4" r="4" transform="translate(50 21)" fill="#e89d43"/>
          <path id="Path_982908" data-name="Path 982908" d="M61,35H47V33a4,4,0,0,1,4-4h6a4,4,0,0,1,4,4Z" fill="#e89d43"/>
          <circle id="Ellipse_11576" data-name="Ellipse 11576" cx="4" cy="4" r="4" transform="translate(22 47)" fill="#e89d43"/>
          <path id="Path_982909" data-name="Path 982909" d="M33,61H19V59a4,4,0,0,1,4-4h6a4,4,0,0,1,4,4Z" fill="#e89d43"/>
          <circle id="Ellipse_11577" data-name="Ellipse 11577" cx="4" cy="4" r="4" transform="translate(45 3)" fill="#e89d43"/>
          <path id="Path_982910" data-name="Path 982910" d="M56,17H42V15a4,4,0,0,1,4-4h6a4,4,0,0,1,4,4Z" fill="#e89d43"/>
          <circle id="Ellipse_11578" data-name="Ellipse 11578" cx="3" cy="3" r="3" transform="translate(3 26)" fill="#e89d43"/>
          <circle id="Ellipse_11579" data-name="Ellipse 11579" cx="3" cy="3" r="3" transform="translate(8 6)" fill="#e89d43"/>
          <circle id="Ellipse_11580" data-name="Ellipse 11580" cx="3" cy="3" r="3" transform="translate(7 44)" fill="#e89d43"/>
        </g>
        <path id="Path_982911" data-name="Path 982911" d="M39,36,60.379,57.379a2.121,2.121,0,0,1-3,3L36,39Z" fill="#454a6d"/>
        <circle id="Ellipse_11581" data-name="Ellipse 11581" cx="14" cy="14" r="14" transform="translate(15 15)" fill="#eae8e5"/>
        <circle id="Ellipse_11582" data-name="Ellipse 11582" cx="4" cy="4" r="4" transform="translate(25 21)" fill="#4ac3ed"/>
        <path id="Path_982912" data-name="Path 982912" d="M37,35H21V33a4,4,0,0,1,4-4H33a4,4,0,0,1,4,4Z" fill="#4ac3ed"/>
        <path id="Path_982913" data-name="Path 982913" d="M34.5,28.256l0-.011-.086-.015a4.928,4.928,0,0,0-1.2-.208l-.042-.007v0c-.06,0-.115-.018-.175-.018h-.022A4.948,4.948,0,0,0,34,25a5,5,0,0,0-10,0,4.948,4.948,0,0,0,1.026,3H25a5.01,5.01,0,0,0-5,5v2a1,1,0,0,0,1,1H37a1,1,0,0,0,1-1V33a4.993,4.993,0,0,0-3.5-4.748ZM26,25a3,3,0,1,1,3,3A3,3,0,0,1,26,25Zm10,9H22V33a3.008,3.008,0,0,1,3-3h7.91l1.1.191A3,3,0,0,1,36,33Z" fill="#0d1030"/>
        <path id="Path_982914" data-name="Path 982914" d="M5.86,32.986,8.188,43.454a3.988,3.988,0,1,0,3.989,6.893l6.581,6.038A4.954,4.954,0,0,0,18,59v2a1,1,0,0,0,1,1H33a1,1,0,0,0,1-1V59.376l9.779-11.183L56.673,61.087A3.1,3.1,0,0,0,58.88,62,3.117,3.117,0,0,0,62,58.88a3.1,3.1,0,0,0-.913-2.207L47.9,43.485,54.454,36H61a1,1,0,0,0,1-1V33a5,5,0,0,0-4.1-4.909A4.947,4.947,0,0,0,59,25a4.963,4.963,0,0,0-6.113-4.865L51.914,18H56a1,1,0,0,0,1-1V15a5,5,0,0,0-4.1-4.909A4.947,4.947,0,0,0,54,7a4.989,4.989,0,0,0-9.925-.742L14.8,7.8a3.988,3.988,0,1,0-5.7,4.7L5.971,25a3.993,3.993,0,0,0-.111,7.983Zm6.97-20.45,5.424,6.021A14.943,14.943,0,0,0,14,29c0,.031,0,.06.005.09l-4.091-.911a4,4,0,0,0-2.007-2.673L11.03,13a3.951,3.951,0,0,0,1.8-.461Zm2.09-2.744L44.179,8.255a4.946,4.946,0,0,0,.922,1.836A5,5,0,0,0,41,15v1.719L39.273,18.1a14.917,14.917,0,0,0-19.53-.879l-5.414-6.01a3.981,3.981,0,0,0,.591-1.419ZM29,42A13,13,0,1,1,42,29,13.015,13.015,0,0,1,29,42ZM9.8,30.2l4.381.976A15.015,15.015,0,0,0,26.3,43.743L26.032,46c-.011,0-.021,0-.032,0a5.006,5.006,0,0,0-5,5,4.947,4.947,0,0,0,1.1,3.091,4.947,4.947,0,0,0-1.977.833l-6.6-6.061a3.959,3.959,0,0,0-3.379-5.849L7.811,32.546A3.991,3.991,0,0,0,9.8,30.2ZM26,54a3,3,0,1,1,3-3A3,3,0,0,1,26,54ZM10,49a2,2,0,1,1,2-2A2,2,0,0,1,10,49ZM32,60H20V59a3,3,0,0,1,3-3h6a3,3,0,0,1,3,3Zm1.516-3.11a5,5,0,0,0-3.617-2.8A4.947,4.947,0,0,0,31,51a5,5,0,0,0-3-4.578l.287-2.458c.239.011.474.036.716.036a14.905,14.905,0,0,0,8.157-2.429l5.205,5.205ZM60,58.88a1.128,1.128,0,0,1-.327.793,1.16,1.16,0,0,1-1.586,0L38.771,40.357a15.223,15.223,0,0,0,1.586-1.586L59.673,58.087A1.114,1.114,0,0,1,60,58.88ZM46.481,42.067l-4.91-4.91a14.9,14.9,0,0,0,2.141-5.248l2.357.412A4.912,4.912,0,0,0,46,33v2a1,1,0,0,0,1,1h4.8ZM60,33v1H48V33a3,3,0,0,1,3-3h6A3,3,0,0,1,60,33Zm-3-8a3,3,0,1,1-3-3A3,3,0,0,1,57,25Zm-5.932-4.031a4.933,4.933,0,0,0-.967,7.122,4.991,4.991,0,0,0-3.356,2.319l-2.791-.489c.018-.306.046-.61.046-.921a14.924,14.924,0,0,0-3.355-9.436L42.6,18h7.115ZM55,15v1H43V15a3,3,0,0,1,3-3h6A3,3,0,0,1,55,15ZM49,4a3,3,0,1,1-3,3A3,3,0,0,1,49,4ZM11,7A2,2,0,1,1,9,9,2,2,0,0,1,11,7ZM6,27a2,2,0,1,1-2,2A2,2,0,0,1,6,27Z" fill="#0d1030"/>
      </g>
    </g>
  </g>
</svg>
