<svg xmlns="http://www.w3.org/2000/svg" xmlns:xlink="http://www.w3.org/1999/xlink" width="78" height="78" viewBox="0 0 78 78">
  <defs>
    <filter id="Fondo" x="0" y="0" width="78" height="78" filterUnits="userSpaceOnUse">
      <feOffset dy="3" input="SourceAlpha"/>
      <feGaussianBlur stdDeviation="3" result="blur"/>
      <feFlood flood-opacity="0.161"/>
      <feComposite operator="in" in2="blur"/>
      <feComposite in="SourceGraphic"/>
    </filter>
  </defs>
  <g id="Group_1145233" data-name="Group 1145233" transform="translate(-819 -5805)">
    <g id="Group_1145188" data-name="Group 1145188">
      <g transform="matrix(1, 0, 0, 1, 819, 5805)" filter="url(#Fondo)">
        <g id="Fondo-2" data-name="Fondo" transform="translate(9 6)" fill="#fef8e7" stroke="#bca724" stroke-width="3">
          <circle cx="30" cy="30" r="30" stroke="none"/>
          <circle cx="30" cy="30" r="28.5" fill="none"/>
        </g>
      </g>
    </g>
    <g id="Group_1145187" data-name="Group 1145187" transform="translate(840.325 5799.992)">
      <g id="Group_1145185" data-name="Group 1145185" transform="translate(0.548 24.693)">
        <path id="Path_982835" data-name="Path 982835" d="M58.977,416.893l-2.665,1.946a.393.393,0,0,1-.624-.318v-.826H24.2v-2.237H55.689v-.827a.393.393,0,0,1,.624-.317l2.665,1.946A.392.392,0,0,1,58.977,416.893Z" transform="translate(-22.981 -386.284)" fill="#6c7fd8"/>
        <path id="Path_982836" data-name="Path 982836" d="M11.784,35.1h-.826v27.96H8.72V35.1H7.893a.393.393,0,0,1-.317-.624l1.946-2.665a.392.392,0,0,1,.634,0L12.1,34.472A.393.393,0,0,1,11.784,35.1Z" transform="translate(-7.5 -31.645)" fill="#6c7fd8"/>
        <path id="Path_982837" data-name="Path 982837" d="M34.19,34.472l-1.946-2.665a.392.392,0,0,0-.634,0l-.281.384,1.665,2.28c.223.332-.143.714-.569.624a.575.575,0,0,0-.575.575l-.036,24.61a.536.536,0,0,0,.536.537h.695V35.1h.826A.393.393,0,0,0,34.19,34.472Z" transform="translate(-29.589 -31.645)" fill="#4f66d0"/>
        <path id="Path_982838" data-name="Path 982838" d="M458.47,416.263l-2.665-1.946a.393.393,0,0,0-.624.317v.79a.35.35,0,0,1,.557-.283l1.536,1.122a.392.392,0,0,1,0,.634l-1.536,1.122a.35.35,0,0,1-.557-.283v.789a.393.393,0,0,0,.624.318l2.665-1.946A.392.392,0,0,0,458.47,416.263Z" transform="translate(-422.473 -386.288)" fill="#4f66d0"/>
        <path id="Path_982839" data-name="Path 982839" d="M62.83,119.674l-2.609.375c-.24.023-5.4.116-5.4.116v7.877H84.07V104.168h-.005C79.777,111.742,71,118.1,62.83,119.674Z" transform="translate(-51.364 -98.869)" fill="#e2f1fe"/>
        <path id="Path_982840" data-name="Path 982840" d="M430.954,104.172a27.45,27.45,0,0,1-1.9,2.9v20.972h1.908V104.172Z" transform="translate(-398.252 -98.873)" fill="#c4e3ff"/>
      </g>
      <g id="Group_1145186" data-name="Group 1145186" transform="translate(0 24.145)">
        <path id="Path_982841" data-name="Path 982841" d="M211.982,95.261a.574.574,0,0,0,.767-.108l1.327-1.759,1.4,1.839a.555.555,0,0,0,.768.105.548.548,0,0,0,.105-.768l-1.583-2.086,1.334-1.769a.548.548,0,1,0-.875-.66l-1.148,1.522-1.156-1.523a.548.548,0,1,0-.873.663l1.343,1.77-1.513,2.007A.548.548,0,0,0,211.982,95.261Z" transform="translate(-196.293 -85.038)"/>
        <path id="Path_982842" data-name="Path 982842" d="M129.13,75.132h.2v3.8a.548.548,0,0,0,1.1,0v-3.8h.445a.548.548,0,0,0,0-1.1h-.445v-.974c-.009-.213.106-.24.407-.206a.548.548,0,0,0,.242-1.069,1.642,1.642,0,0,0-1.293.24,1.254,1.254,0,0,0-.452,1.035v.974h-.2a.548.548,0,0,0,0,1.1Z" transform="translate(-119.188 -68.269)"/>
        <path id="Path_982843" data-name="Path 982843" d="M183.187,92.973a.548.548,0,0,0,.53-.689,8.688,8.688,0,0,1-.02-4.977.548.548,0,0,0-1.018-.405,9.578,9.578,0,0,0-.021,5.664A.548.548,0,0,0,183.187,92.973Z" transform="translate(-168.945 -81.997)"/>
        <path id="Path_982844" data-name="Path 982844" d="M285.855,90.069a.548.548,0,0,0,.388.671.573.573,0,0,0,.671-.388,9.578,9.578,0,0,0-.021-5.664.548.548,0,0,0-1.018.407A8.572,8.572,0,0,1,285.855,90.069Z" transform="translate(-264.953 -79.944)"/>
        <path id="Path_982845" data-name="Path 982845" d="M36.868,54.225s-2.923-2.163-3.065-2.187V30.124q.326-.582.615-1.172l.366.991a.566.566,0,0,0,.7.324.548.548,0,0,0,.324-.7l-.8-2.164c-.137-.223-.134-.521-.736-.411l-2.251.83a.548.548,0,0,0,.379,1.028l1.029-.38a30.689,30.689,0,0,1-8.492,10.188,31.105,31.105,0,0,1-13.031,6.3.548.548,0,0,0-.434.642.584.584,0,0,0,.642.434c7.864-1.513,16.01-7.25,20.589-14.123V53.318H4.553V46.527c1.569-.029,4.691-.089,4.9-.109a.548.548,0,0,0-.1-1.091c-.2.015-2.806.067-4.8.1V28.691h.278a.941.941,0,0,0,.76-1.5L3.647,24.532a.944.944,0,0,0-.76-.387h0a.941.941,0,0,0-.758.386L.181,27.2a.941.941,0,0,0,.76,1.495H1.22V56.1a.548.548,0,0,0,.548.548h8.359v.483a.548.548,0,1,0,1.1,0v-.483H18.1v.483a.548.548,0,1,0,1.1,0v-.483h6.881v.483a.548.548,0,0,0,1.1,0v-2.72h6.077l.056,0a.548.548,0,0,0,.493-.545v-.521l2.246,1.64L33.8,56.624V56.1a.548.548,0,0,0-.548-.548H29.19a.548.548,0,0,0,0,1.1h3.518v.278a.94.94,0,0,0,1.5.76l2.664-1.945a.94.94,0,0,0,0-1.52ZM2.316,55.555V28.143a.548.548,0,0,0-.548-.548H1.247l1.64-2.246L4.526,27.6H4.005a.548.548,0,0,0-.548.548V53.866h0a.548.548,0,0,0,.548.548h6.122v1.141H2.316Zm8.907,0V54.414H18.1v1.141Zm14.858,0H19.2V54.414h6.881Z" transform="translate(0 -24.145)"/>
        <path id="Path_982846" data-name="Path 982846" d="M356.986,351.249a.548.548,0,1,0,1.1,0v-.07a.548.548,0,1,0-1.1,0Z" transform="translate(-330.904 -326.778)"/>
        <path id="Path_982847" data-name="Path 982847" d="M356.986,387.727a.548.548,0,1,0,1.1,0v-.071a.548.548,0,1,0-1.1,0Z" transform="translate(-330.904 -360.59)"/>
        <path id="Path_982848" data-name="Path 982848" d="M356.986,314.675a.548.548,0,1,0,1.1,0v-.07a.548.548,0,1,0-1.1,0Z" transform="translate(-330.904 -292.876)"/>
        <path id="Path_982849" data-name="Path 982849" d="M356.986,278.2a.548.548,0,1,0,1.1,0v-.071a.548.548,0,1,0-1.1,0Z" transform="translate(-330.904 -259.065)"/>
        <path id="Path_982850" data-name="Path 982850" d="M357.534,241.781a.548.548,0,0,0,.548-.548v-.071a.548.548,0,1,0-1.1,0v.071A.548.548,0,0,0,357.534,241.781Z" transform="translate(-330.904 -224.799)"/>
        <path id="Path_982851" data-name="Path 982851" d="M247.8,351.249a.548.548,0,1,0,1.1,0v-.07a.548.548,0,0,0-1.1,0Z" transform="translate(-229.697 -326.778)"/>
        <path id="Path_982852" data-name="Path 982852" d="M247.8,387.727a.548.548,0,0,0,1.1,0v-.071a.548.548,0,0,0-1.1,0Z" transform="translate(-229.697 -360.59)"/>
        <path id="Path_982853" data-name="Path 982853" d="M248.35,315.223a.548.548,0,0,0,.548-.548v-.07a.548.548,0,1,0-1.1,0v.07A.548.548,0,0,0,248.35,315.223Z" transform="translate(-229.697 -292.876)"/>
        <path id="Path_982854" data-name="Path 982854" d="M139.715,351.179a.548.548,0,0,0-1.1,0v.07a.548.548,0,1,0,1.1,0Z" transform="translate(-128.491 -326.778)"/>
        <path id="Path_982855" data-name="Path 982855" d="M139.167,387.107a.548.548,0,0,0-.548.548v.07a.548.548,0,1,0,1.1,0v-.07A.548.548,0,0,0,139.167,387.107Z" transform="translate(-128.491 -360.589)"/>
      </g>
    </g>
  </g>
</svg>
