<svg xmlns="http://www.w3.org/2000/svg" xmlns:xlink="http://www.w3.org/1999/xlink" width="78" height="78" viewBox="0 0 78 78">
  <defs>
    <filter id="Fondo" x="0" y="0" width="78" height="78" filterUnits="userSpaceOnUse">
      <feOffset dy="3" input="SourceAlpha"/>
      <feGaussianBlur stdDeviation="3" result="blur"/>
      <feFlood flood-opacity="0.161"/>
      <feComposite operator="in" in2="blur"/>
      <feComposite in="SourceGraphic"/>
    </filter>
  </defs>
  <g id="Group_1145189" data-name="Group 1145189" transform="translate(-186 -5805)">
    <g transform="matrix(1, 0, 0, 1, 186, 5805)" filter="url(#Fondo)">
      <g id="Fondo-2" data-name="Fondo" transform="translate(9 6)" fill="#fef8e7" stroke="#bca724" stroke-width="3">
        <circle cx="30" cy="30" r="30" stroke="none"/>
        <circle cx="30" cy="30" r="28.5" fill="none"/>
      </g>
    </g>
    <g id="Group_1145184" data-name="Group 1145184" transform="translate(205.675 5821.63)">
      <path id="Path_982811" data-name="Path 982811" d="M53.231,7.8H33.789a1.1,1.1,0,0,0-1.1,1.1V44.313a1.1,1.1,0,0,0,1.1,1.1H57.4a1.1,1.1,0,0,0,1.1-1.1V13.068Zm0,0" transform="translate(-30.218 -7.215)" fill="#edebed"/>
      <path id="Path_982812" data-name="Path 982812" d="M34.961,44.313V8.9a1.1,1.1,0,0,1,1.1-1.1h-2.27a1.1,1.1,0,0,0-1.1,1.1V44.313a1.1,1.1,0,0,0,1.1,1.1h2.27A1.1,1.1,0,0,1,34.961,44.313Zm0,0" transform="translate(-30.219 -7.214)" fill="#e0d9d5"/>
      <path id="Path_982813" data-name="Path 982813" d="M305.235,13.068H309.4L304.137,7.8V11.97A1.1,1.1,0,0,0,305.235,13.068Zm0,0" transform="translate(-281.125 -7.215)" fill="#e0d9d5"/>
      <path id="Path_982814" data-name="Path 982814" d="M306.407,11.97v-1.9l-2.27-2.27V11.97a1.1,1.1,0,0,0,1.1,1.1h2.27A1.1,1.1,0,0,1,306.407,11.97Zm0,0" transform="translate(-281.125 -7.215)" fill="#cec8c6"/>
      <path id="Path_982815" data-name="Path 982815" d="M31.907,87.126l-15.983-4.8a1.1,1.1,0,0,0-1.367.736L7.737,105.8a1.1,1.1,0,0,0,.736,1.367l15.983,4.8a1.1,1.1,0,0,0,1.367-.736l6.82-22.73a1.1,1.1,0,0,0-.736-1.367Zm0,0" transform="translate(-7.11 -76.059)" fill="#6397d6"/>
      <path id="Path_982816" data-name="Path 982816" d="M10.98,107.165a1.1,1.1,0,0,1-.736-1.367l6.82-22.731a1.081,1.081,0,0,1,.174-.342l-1.314-.394a1.1,1.1,0,0,0-1.367.736L7.737,105.8a1.1,1.1,0,0,0,.736,1.367l15.983,4.8a1.1,1.1,0,0,0,1.193-.394Zm0,0" transform="translate(-7.11 -76.059)" fill="#4686c6"/>
      <path id="Path_982817" data-name="Path 982817" d="M66.829,223.522,55,219.972a.574.574,0,0,0-.712.383L50.914,231.6a.574.574,0,0,0,.383.712l11.832,3.55a.574.574,0,0,0,.712-.383l2.611-8.7.761-2.536a.574.574,0,0,0-.383-.712Zm0,0" transform="translate(-47.04 -203.306)" fill="#f9ca46"/>
      <path id="Path_982818" data-name="Path 982818" d="M179.015,338.047l-1.851,6.168,2.684.805a.573.573,0,0,0,.712-.383l1.686-5.62Zm0,0" transform="translate(-163.759 -312.468)" fill="#fc5f61"/>
      <path id="Path_982819" data-name="Path 982819" d="M123.338,129.127l-11.831-3.55a.574.574,0,0,0-.712.383l-1.065,3.55a.574.574,0,0,0,.383.712l11.831,3.55a.574.574,0,0,0,.712-.384l1.065-3.549A.573.573,0,0,0,123.338,129.127Zm0,0" transform="translate(-101.405 -116.053)" fill="#f9ca46"/>
      <path id="Path_982820" data-name="Path 982820" d="M53.768,233.04l3.7-12.327L55,219.972a.574.574,0,0,0-.712.383L50.913,231.6a.574.574,0,0,0,.383.712l2.469.741Zm0,0" transform="translate(-47.039 -203.306)" fill="#efae2e"/>
      <path id="Path_982821" data-name="Path 982821" d="M112.292,130.34l1.088-3.625a.586.586,0,0,1,.534-.415l-2.408-.722a.574.574,0,0,0-.712.383l-1.065,3.55a.573.573,0,0,0,.383.712l2.326.7A.585.585,0,0,1,112.292,130.34Zm0,0" transform="translate(-101.405 -116.054)" fill="#efae2e"/>
      <path id="Path_982822" data-name="Path 982822" d="M60.057,216.043l-11.831-3.55a1.14,1.14,0,0,0-1.419.764L43.435,224.5a1.141,1.141,0,0,0,.764,1.419l11.832,3.55a1.141,1.141,0,0,0,1.419-.764l3.372-11.24a1.14,1.14,0,0,0-.764-1.419Zm-1.846,6.169-2.145-.643.6-2L58.1,220l.712.214Zm-4.157,2.114-2.145-.643.6-2,1.627.488.518.155Zm.925-3.084-2.144-.643.6-2,2.144.643Zm-3.232-.97-1.43-.429-.715-.215.6-2,2.144.643Zm-2.471.444,1.072.322,1.072.322-.6,2-2.145-.643Zm6.628-2.558-2.145-.643.6-2,2.144.643Zm-3.232-.97-2.145-.643.6-2,2.145.643ZM48.516,219.3l-2.142-.643.6-2,2.141.642Zm-2.469.444,2.017.605.126.038-.6,2-2.144-.643Zm2.3,4.053,2.144.643-.6,2-2.144-.643Zm3.232.969,2.144.643-.6,2-2.144-.643Zm7.553-5.642-2.144-.643.6-2,2.144.647Zm-9.1-4.905-.6,2-2.141-.642.6-2Zm-4.92,8.608,2.144.643-.6,2-2.144-.647Zm11.236,5.548-2.14-.642,1.524-5.081,2.144.643Zm0,0" transform="translate(-40.104 -196.37)" fill="#4686c6"/>
      <path id="Path_982823" data-name="Path 982823" d="M426.763,29.032h2.083V25.959a1.2,1.2,0,1,0-2.392,0v3.073Zm0,0" transform="translate(-394.185 -22.863)" fill="#6397d6"/>
      <path id="Path_982824" data-name="Path 982824" d="M428.163,26.074a1.351,1.351,0,0,1,.373-.935,1.179,1.179,0,0,0-.886-.4,1.21,1.21,0,0,0-1.2,1.224v3.073h1.709Zm0,0" transform="translate(-394.185 -22.863)" fill="#4686c6"/>
      <path id="Path_982825" data-name="Path 982825" d="M419.536,446.582l-1.86.227,1.153,3.383a.748.748,0,0,0,1.416,0l1.153-3.383Zm0,0" transform="translate(-386.072 -412.791)" fill="#4686c6"/>
      <path id="Path_982826" data-name="Path 982826" d="M419.9,446.809l.744-.091-1.116-.136-1.861.227,1.153,3.383a.748.748,0,0,0,1.416,0l.408-1.2Zm0,0" transform="translate(-386.069 -412.791)" fill="#1b75b2"/>
      <path id="Path_982827" data-name="Path 982827" d="M417.672,183.121h3.721v20.162h-3.721Zm0,0" transform="translate(-386.069 -169.265)" fill="#edebed"/>
      <path id="Path_982828" data-name="Path 982828" d="M417.672,183.121H419.9v20.162h-2.232Zm0,0" transform="translate(-386.069 -169.265)" fill="#e0d9d5"/>
      <path id="Path_982829" data-name="Path 982829" d="M414.263,80.223h-2.872a.974.974,0,0,0-.974.974v6.715a.419.419,0,0,0,.419.419h3.98a.419.419,0,0,0,.419-.419V81.2A.974.974,0,0,0,414.263,80.223Zm0,0" transform="translate(-379.363 -74.153)" fill="#4686c6"/>
      <path id="Path_982830" data-name="Path 982830" d="M412.65,87.912V81.2a.974.974,0,0,1,.974-.974h-2.232a.974.974,0,0,0-.974.974v6.715a.419.419,0,0,0,.419.419h2.232A.42.42,0,0,1,412.65,87.912Zm0,0" transform="translate(-379.364 -74.153)" fill="#1b75b2"/>
      <path id="Path_982831" data-name="Path 982831" d="M404.343,35.572a.568.568,0,0,0,.568-.568V23.75a.568.568,0,0,0-.568-.568h-1.659V22.67a1.543,1.543,0,0,0-1.214-1.505V18.694a1.764,1.764,0,0,0-3.527,0v2.471a1.543,1.543,0,0,0-1.213,1.505v.519a.567.567,0,0,0,0,1.123v5.074a.987.987,0,0,0,.549.883V49.645a.559.559,0,0,0,.03.183l1.153,3.383a1.315,1.315,0,0,0,2.49,0l1.153-3.383a.567.567,0,0,0,.03-.183V40.591a.568.568,0,1,0-1.135,0v8.487h-2.586V30.372H401v7.57a.568.568,0,0,0,1.135,0V30.268a.988.988,0,0,0,.549-.883V24.318h1.092V35.005a.567.567,0,0,0,.567.568Zm-5.264-16.879a.628.628,0,1,1,1.257,0v2.435h-1.257Zm-.808,3.57h2.872a.407.407,0,0,1,.406.406v.513h-3.684V22.67A.406.406,0,0,1,398.271,22.264Zm2.5,27.948-.9,2.632a.179.179,0,0,1-.341,0l-.9-2.632Zm.775-20.975h-3.684V24.318h3.684Zm0,0" transform="translate(-366.26 -15.65)"/>
      <path id="Path_982832" data-name="Path 982832" d="M116.375,121.342l-11.832-3.55a1.14,1.14,0,0,0-1.419.764l-1.065,3.55a1.141,1.141,0,0,0,.764,1.419l11.832,3.55a1.141,1.141,0,0,0,1.419-.764l1.065-3.55A1.14,1.14,0,0,0,116.375,121.342Zm-1.394,4.645-11.834-3.555,1.07-3.552,11.832,3.55,0,.005Zm0,0" transform="translate(-94.294 -108.835)"/>
      <path id="Path_982833" data-name="Path 982833" d="M59.87,215.738l-11.832-3.55a1.14,1.14,0,0,0-1.419.764l-2.611,8.7-.761,2.536a1.141,1.141,0,0,0,.764,1.419l11.832,3.55a1.141,1.141,0,0,0,1.419-.764l3.372-11.24a1.141,1.141,0,0,0-.764-1.419Zm-6,8.283-2.144-.643.6-2,2.145.643-.6,2Zm.925-3.084-2.144-.643.6-2,2.144.643Zm-3.232-.969-2.144-.643.6-2,2.144.643Zm-2.47.444,2.144.643-.6,2-2.144-.643Zm6.79.852.6-2,2.143.643-.6,2Zm-.162-3.41-2.145-.643.6-2,2.145.643Zm-3.232-.97-2.145-.643.6-2,2.145.643ZM48.328,219l-2.142-.643.6-2,2.141.643Zm-2.469.445,2.143.643-.6,2-2.144-.643Zm2.3,4.053,2.145.643-.6,2-2.145-.643Zm3.232.97,2.145.643-.6,2-2.145-.643Zm7.552-5.642-2.144-.643.6-2,2.144.647Zm-9.1-4.905-.6,2-2.141-.642.6-2Zm-4.92,8.608,2.144.643-.6,2-2.144-.647Zm11.236,5.547-2.141-.642,1.524-5.081,2.142.643Zm0,0" transform="translate(-39.931 -196.088)"/>
      <path id="Path_982834" data-name="Path 982834" d="M28.829,37.076V5.831a.57.57,0,0,0-.166-.4L23.4.166A.574.574,0,0,0,23,0H3.557A1.668,1.668,0,0,0,1.891,1.665V23.481L.069,29.552a1.667,1.667,0,0,0,1.117,2.074l.7.212v5.238a1.668,1.668,0,0,0,1.666,1.666H14.036a.568.568,0,1,0,0-1.135H3.557a.531.531,0,0,1-.531-.531v-4.9l14.143,4.243A1.668,1.668,0,0,0,19.243,35.3l6.82-22.73A1.668,1.668,0,0,0,24.946,10.5L8.963,5.705A1.668,1.668,0,0,0,6.889,6.822L3.026,19.7V1.665a.531.531,0,0,1,.531-.531H22.431v3.6A1.668,1.668,0,0,0,24.1,6.4h3.6V37.076a.531.531,0,0,1-.531.531H16.684a.568.568,0,0,0,0,1.135H27.164a1.668,1.668,0,0,0,1.666-1.666Zm-10.674-2.1a.532.532,0,0,1-.661.356l-15.983-4.8a.533.533,0,0,1-.356-.661L3,23.728H3L7.977,7.148a.533.533,0,0,1,.66-.356l15.983,4.8a.534.534,0,0,1,.356.661ZM24.1,5.263a.531.531,0,0,1-.531-.531v-2.8l3.326,3.326Zm0,0" transform="translate(0 0)"/>
    </g>
  </g>
</svg>
