<svg xmlns="http://www.w3.org/2000/svg" xmlns:xlink="http://www.w3.org/1999/xlink" width="108" height="108" viewBox="0 0 108 108">
  <defs>
    <filter id="Fondo" x="0" y="0" width="108" height="108" filterUnits="userSpaceOnUse">
      <feOffset dy="3" input="SourceAlpha"/>
      <feGaussianBlur stdDeviation="3" result="blur"/>
      <feFlood flood-opacity="0.161"/>
      <feComposite operator="in" in2="blur"/>
      <feComposite in="SourceGraphic"/>
    </filter>
  </defs>
  <g id="Group_1145235" data-name="Group 1145235" transform="translate(-326 -7395)">
    <g id="Group_1145203" data-name="Group 1145203">
      <g transform="matrix(1, 0, 0, 1, 326, 7395)" filter="url(#Fondo)">
        <g id="Fondo-2" data-name="Fondo" transform="translate(9 6)" fill="#fef8e7" stroke="#bca724" stroke-width="3">
          <circle cx="45" cy="45" r="45" stroke="none"/>
          <circle cx="45" cy="45" r="43.5" fill="none"/>
        </g>
      </g>
      <g id="Group_1145234" data-name="Group 1145234">
        <g id="Group_1145202" data-name="Group 1145202" transform="translate(351 7414)">
          <g id="Group_1145200" data-name="Group 1145200">
            <g id="Group_1145190" data-name="Group 1145190">
              <path id="Path_982856" data-name="Path 982856" d="M33,58a3,3,0,0,1,3,3,1,1,0,0,1-1,1H13a1,1,0,0,1-1-1,3,3,0,0,1,3-3Z" fill="#969faa"/>
            </g>
            <g id="Group_1145191" data-name="Group 1145191">
              <path id="Path_982857" data-name="Path 982857" d="M15,54H33v4H15Z" fill="#ccd1d9"/>
            </g>
            <g id="Group_1145192" data-name="Group 1145192">
              <path id="Path_982858" data-name="Path 982858" d="M46,46v4a4,4,0,0,1-4,4H6a4,4,0,0,1-4-4V46Z" fill="#ccd1d9"/>
            </g>
            <g id="Group_1145193" data-name="Group 1145193">
              <path id="Path_982859" data-name="Path 982859" d="M42,24H6a4,4,0,0,0-4,4V46H46V28a4,4,0,0,0-4-4Z" fill="#69d6f4"/>
            </g>
            <g id="Group_1145194" data-name="Group 1145194">
              <path id="Path_982860" data-name="Path 982860" d="M57,12a5,5,0,1,1-5,5,1.34,1.34,0,0,1,.01-.2,4.8,4.8,0,0,1,.48-1.96h.01A4.976,4.976,0,0,1,57,12Z" fill="#ff826e"/>
            </g>
            <g id="Group_1145195" data-name="Group 1145195">
              <path id="Path_982861" data-name="Path 982861" d="M32,2a3,3,0,0,1,3,3,3,3,0,0,1-5.92.66h-.01A3.512,3.512,0,0,1,29,5,3,3,0,0,1,32,2Z" fill="#ff826e"/>
            </g>
            <g id="Group_1145196" data-name="Group 1145196">
              <path id="Path_982862" data-name="Path 982862" d="M36,16a.86.86,0,0,1-.01.16,3.972,3.972,0,0,1-2.83,3.67A4.069,4.069,0,0,1,32,20a4.007,4.007,0,0,1-4-4,4,4,0,1,1,8,0Z" fill="#ff826e"/>
            </g>
            <g id="Group_1145197" data-name="Group 1145197">
              <path id="Path_982863" data-name="Path 982863" d="M14.88,8.89A5.1,5.1,0,0,1,15,10a4.782,4.782,0,0,1-.18,1.32,5,5,0,0,1-3.88,3.59A4.91,4.91,0,0,1,10,15a5,5,0,1,1,4.88-6.11Z" fill="#ff826e"/>
            </g>
            <g id="Group_1145198" data-name="Group 1145198">
              <path id="Path_982864" data-name="Path 982864" d="M17,31a2.715,2.715,0,0,1-.15.91,3,3,0,1,1-3.41-3.86A3.43,3.43,0,0,1,14,28a3.01,3.01,0,0,1,3,3Z" fill="#ff826e"/>
            </g>
            <g id="Group_1145199" data-name="Group 1145199">
              <path id="Path_982865" data-name="Path 982865" d="M40.9,36.68A3,3,0,1,1,36,39a2.909,2.909,0,0,1,.14-.89,2.989,2.989,0,0,1,1.99-1.98A3.1,3.1,0,0,1,39,36,3.019,3.019,0,0,1,40.9,36.68Z" fill="#ff826e"/>
            </g>
          </g>
          <g id="Group_1145201" data-name="Group 1145201">
            <path id="Path_982866" data-name="Path 982866" d="M23,49h2v2H23Z"/>
            <path id="Path_982867" data-name="Path 982867" d="M27,49h2v2H27Z"/>
            <path id="Path_982868" data-name="Path 982868" d="M19,49h2v2H19Z"/>
            <path id="Path_982869" data-name="Path 982869" d="M54.031,22.207a6,6,0,1,0-1.925-8.666L35.922,5.774a3.994,3.994,0,1,0-7.91-.893L15.545,7.714A6,6,0,1,0,10,16c.042,0,.082-.005.124-.006L11.458,23H6a5.006,5.006,0,0,0-5,5V50a5.006,5.006,0,0,0,5,5h8v2.142A4,4,0,0,0,11,61a2,2,0,0,0,2,2H35a2,2,0,0,0,2-2,4,4,0,0,0-3-3.858V55h8a5.006,5.006,0,0,0,5-5V30.8Zm-18.4,14.664L17.977,31.223c0-.075.023-.147.023-.223a3.96,3.96,0,0,0-.4-1.7L22.763,25H33.694L36.92,35.6a4.018,4.018,0,0,0-1.294,1.271Zm-19.3-9.112a3.957,3.957,0,0,0-2.065-.732L13.875,25h5.761ZM14,29a2,2,0,1,1-2,2,2,2,0,0,1,2-2ZM32,13a3,3,0,1,1-3,3A3,3,0,0,1,32,13Zm-3.1,6.889A4.955,4.955,0,0,0,32,21c.158,0,.308-.032.462-.047L33.085,23H25.163ZM39,37a2,2,0,1,1-2,2A2,2,0,0,1,39,37Zm1.671-1.622A3.951,3.951,0,0,0,39,35c-.057,0-.11.014-.166.017L35.785,25H42a3,3,0,0,1,3,3v2.087ZM42,23H35.176l-.8-2.628a4.988,4.988,0,0,0,2.463-3.177l14.214.568a5.963,5.963,0,0,0,1.431,3.176l-5.517,6.743A4.991,4.991,0,0,0,42,23ZM57,13a4,4,0,1,1-4,4A4,4,0,0,1,57,13Zm-5.762,2.343c-.04.139-.079.278-.109.421L36.918,15.2A5,5,0,0,0,33,11.1V8.858a3.987,3.987,0,0,0,2.041-1.289ZM32,3a2,2,0,1,1-2,2,2,2,0,0,1,2-2ZM28.464,6.83A3.993,3.993,0,0,0,31,8.858V11.1a5,5,0,0,0-3.441,2.651L15.97,10.592C15.989,10.4,16,10.2,16,10c0-.113-.011-.223-.017-.334ZM6,10a4,4,0,1,1,4,4A4,4,0,0,1,6,10Zm6.088,5.618a6.029,6.029,0,0,0,3.35-3.1l11.594,3.162c-.007.107-.032.209-.032.318a4.929,4.929,0,0,0,.615,2.352L22.037,23H13.494ZM35,61H13a2,2,0,0,1,2-2H33A2.005,2.005,0,0,1,35,61Zm-3-4H16V55H32Zm10-4H6a3,3,0,0,1-3-3V47H45v3A3,3,0,0,1,42,53Zm3-8H3V28a3,3,0,0,1,3-3h5.839l.456,2.4a3.991,3.991,0,1,0,5.079,5.733l17.649,5.648c-.005.075-.023.147-.023.223a4,4,0,0,0,8,0,3.962,3.962,0,0,0-.782-2.354L45,33.246Z"/>
            <path id="Path_982870" data-name="Path 982870" d="M5,37H17v2H5Z"/>
            <path id="Path_982871" data-name="Path 982871" d="M5,41H17v2H5Z"/>
            <path id="Path_982872" data-name="Path 982872" d="M49,33H63v2H49Z"/>
            <path id="Path_982873" data-name="Path 982873" d="M49,37H63v2H49Z"/>
            <path id="Path_982874" data-name="Path 982874" d="M57,41h6v2H57Z"/>
            <path id="Path_982875" data-name="Path 982875" d="M49,41h2v2H49Z"/>
            <path id="Path_982876" data-name="Path 982876" d="M53,41h2v2H53Z"/>
          </g>
        </g>
      </g>
    </g>
  </g>
</svg>
